<?xml version="1.0" encoding="UTF-8" standalone="no"?>
<!-- Created with Inkscape (http://www.inkscape.org/) -->

<svg
   xmlns:dc="http://purl.org/dc/elements/1.1/"
   xmlns:cc="http://creativecommons.org/ns#"
   xmlns:rdf="http://www.w3.org/1999/02/22-rdf-syntax-ns#"
   xmlns:svg="http://www.w3.org/2000/svg"
   xmlns="http://www.w3.org/2000/svg"
   xmlns:sodipodi="http://sodipodi.sourceforge.net/DTD/sodipodi-0.dtd"
   xmlns:inkscape="http://www.inkscape.org/namespaces/inkscape"
   width="150mm"
   height="30mm"
   viewBox="0 0 150 30"
   version="1.1"
   id="svg8"
   inkscape:version="0.92.3 (2405546, 2018-03-11)"
   sodipodi:docname="documento-explicacion.svg">
  <defs
     id="defs2">
    <marker
       inkscape:stockid="Arrow2Lend"
       orient="auto"
       refY="0"
       refX="0"
       id="Arrow2Lend"
       style="overflow:visible"
       inkscape:isstock="true">
      <path
         id="path968"
         style="fill:#0055d4;fill-opacity:1;fill-rule:evenodd;stroke:#0055d4;stroke-width:0.625;stroke-linejoin:round;stroke-opacity:1"
         d="M 8.7185878,4.0337352 -2.2072895,0.01601326 8.7185884,-4.0017078 C 6.97309,-1.6296469 6.9831476,1.6157441 8.7185878,4.0337352 Z"
         transform="matrix(-1.1,0,0,-1.1,-1.1,0)"
         inkscape:connector-curvature="0" />
    </marker>
    <marker
       inkscape:stockid="Arrow2Lend"
       orient="auto"
       refY="0"
       refX="0"
       id="Arrow2Lend-1"
       style="overflow:visible"
       inkscape:isstock="true">
      <path
         inkscape:connector-curvature="0"
         id="path968-7"
         style="fill:#003380;fill-opacity:1;fill-rule:evenodd;stroke:#003380;stroke-width:0.625;stroke-linejoin:round;stroke-opacity:1"
         d="M 8.7185878,4.0337352 -2.2072895,0.01601326 8.7185884,-4.0017078 C 6.97309,-1.6296469 6.9831476,1.6157441 8.7185878,4.0337352 Z"
         transform="matrix(-1.1,0,0,-1.1,-1.1,0)" />
    </marker>
    <marker
       inkscape:stockid="Arrow2Lend"
       orient="auto"
       refY="0"
       refX="0"
       id="Arrow2Lend-2"
       style="overflow:visible"
       inkscape:isstock="true">
      <path
         inkscape:connector-curvature="0"
         id="path968-2"
         style="fill:#80b3ff;fill-opacity:1;fill-rule:evenodd;stroke:#80b3ff;stroke-width:0.625;stroke-linejoin:round;stroke-opacity:1"
         d="M 8.7185878,4.0337352 -2.2072895,0.01601326 8.7185884,-4.0017078 C 6.97309,-1.6296469 6.9831476,1.6157441 8.7185878,4.0337352 Z"
         transform="matrix(-1.1,0,0,-1.1,-1.1,0)" />
    </marker>
    <marker
       inkscape:stockid="Arrow2Lend"
       orient="auto"
       refY="0"
       refX="0"
       id="Arrow2Lend-2-7"
       style="overflow:visible"
       inkscape:isstock="true">
      <path
         inkscape:connector-curvature="0"
         id="path968-2-0"
         style="fill:#00aad4;fill-opacity:1;fill-rule:evenodd;stroke:#00aad4;stroke-width:0.625;stroke-linejoin:round;stroke-opacity:1"
         d="M 8.7185878,4.0337352 -2.2072895,0.01601326 8.7185884,-4.0017078 C 6.97309,-1.6296469 6.9831476,1.6157441 8.7185878,4.0337352 Z"
         transform="matrix(-1.1,0,0,-1.1,-1.1,0)" />
    </marker>
    <marker
       inkscape:stockid="Arrow2Lend"
       orient="auto"
       refY="0"
       refX="0"
       id="Arrow2Lend-2-7-6"
       style="overflow:visible"
       inkscape:isstock="true">
      <path
         inkscape:connector-curvature="0"
         id="path968-2-0-1"
         style="fill:#00ccff;fill-opacity:1;fill-rule:evenodd;stroke:#00ccff;stroke-width:0.625;stroke-linejoin:round;stroke-opacity:1"
         d="M 8.7185878,4.0337352 -2.2072895,0.01601326 8.7185884,-4.0017078 C 6.97309,-1.6296469 6.9831476,1.6157441 8.7185878,4.0337352 Z"
         transform="matrix(-1.1,0,0,-1.1,-1.1,0)" />
    </marker>
  </defs>
  <sodipodi:namedview
     id="base"
     pagecolor="#ffffff"
     bordercolor="#666666"
     borderopacity="1.0"
     inkscape:pageopacity="0.0"
     inkscape:pageshadow="2"
     inkscape:zoom="0.7"
     inkscape:cx="206.0512"
     inkscape:cy="230.08551"
     inkscape:document-units="mm"
     inkscape:current-layer="layer1"
     showgrid="false"
     inkscape:window-width="1316"
     inkscape:window-height="1001"
     inkscape:window-x="1228"
     inkscape:window-y="0"
     inkscape:window-maximized="0" />
  <metadata
     id="metadata5">
    <rdf:RDF>
      <cc:Work
         rdf:about="">
        <dc:format>image/svg+xml</dc:format>
        <dc:type
           rdf:resource="http://purl.org/dc/dcmitype/StillImage" />
        <dc:title></dc:title>
      </cc:Work>
    </rdf:RDF>
  </metadata>
  <g
     inkscape:label="Capa 1"
     inkscape:groupmode="layer"
     id="layer1"
     transform="translate(0,-267)">
    <g
       aria-label="EAAB0001-001-02112018-003-01"
       style="font-style:normal;font-variant:normal;font-weight:normal;font-stretch:normal;font-size:4.23333311px;line-height:1.25;font-family:sans-serif;-inkscape-font-specification:'sans-serif, Normal';font-variant-ligatures:normal;font-variant-caps:normal;font-variant-numeric:normal;font-feature-settings:normal;text-align:start;letter-spacing:0px;word-spacing:0px;writing-mode:lr-tb;text-anchor:start;fill:#000000;fill-opacity:1;stroke:none;stroke-width:0.26458332"
       id="text817">
      <path
         d="M 13.922697,283.78354 H 10.543058 V 278.65379 H 13.922697 V 279.26013 H 11.225187 V 280.66573 H 13.922697 V 281.27206 H 11.225187 V 283.1772 H 13.922697 Z"
         style="fill:#0055d4"
         id="path1044" />
      <path
         d="M 19.052444,283.78354 H 18.325529 L 17.822545,282.35382 H 15.603904 L 15.10092,283.78354 H 14.408455 L 16.275697,278.65379 H 17.185202 Z M 17.612394,281.76816 16.713224,279.24979 15.810609,281.76816 Z"
         style="fill:#0055d4"
         id="path1046" />
      <path
         d="M 23.875577,283.78354 H 23.148662 L 22.645678,282.35382 H 20.427037 L 19.924053,283.78354 H 19.231589 L 21.098831,278.65379 H 22.008336 Z M 22.435528,281.76816 21.536358,279.24979 20.633743,281.76816 Z"
         style="fill:#0055d4"
         id="path1048" />
      <path
         d="M 28.523011,282.20569 Q 28.523011,282.58809 28.378317,282.88092 28.233623,283.17376 27.989021,283.36324 27.699633,283.59061 27.351679,283.68708 27.007169,283.78354 26.473179,283.78354 H 24.654169 V 278.65379 H 26.173456 Q 26.735007,278.65379 27.014059,278.69513 27.293112,278.73647 27.548049,278.86739 27.830547,279.01553 27.958015,279.24979 28.085484,279.48061 28.085484,279.80445 28.085484,280.16963 27.899449,280.42802 27.713414,280.68295 27.403355,280.83798 V 280.86554 Q 27.923564,280.97234 28.223288,281.32374 28.523011,281.6717 28.523011,282.20569 Z M 27.375794,279.89403 Q 27.375794,279.70799 27.313783,279.58052 27.251771,279.45305 27.113967,279.37382 26.952048,279.2808 26.721226,279.26013 26.490405,279.23601 26.14934,279.23601 H 25.336298 V 280.7174 H 26.218242 Q 26.538636,280.7174 26.728116,280.6864 26.917597,280.65195 27.079516,280.54859 27.241436,280.44524 27.306892,280.28332 27.375794,280.11796 27.375794,279.89403 Z M 27.813321,282.23325 Q 27.813321,281.92319 27.720304,281.7406 27.627286,281.55801 27.382684,281.43054 27.21732,281.34441 26.979608,281.3203 26.745342,281.29273 26.407723,281.29273 H 25.336298 V 283.20132 H 26.238913 Q 26.686775,283.20132 26.972718,283.15653 27.258661,283.1083 27.441251,282.98428 27.634176,282.84992 27.723749,282.67766 27.813321,282.50541 27.813321,282.23325 Z"
         style="fill:#0055d4"
         id="path1050" />
      <path
         d="M 32.82249,281.21694 Q 32.82249,282.59843 32.388408,283.2461 31.957771,283.89034 31.048266,283.89034 30.124981,283.89034 29.697789,283.23577 29.274042,282.5812 29.274042,281.22383 29.274042,279.85613 29.704679,279.20501 30.135316,278.55044 31.048266,278.55044 31.971552,278.55044 32.395298,279.21534 32.82249,279.8768 32.82249,281.21694 Z M 31.91643,282.78102 Q 32.037009,282.50196 32.07835,282.12645 32.123136,281.74749 32.123136,281.21694 32.123136,280.69329 32.07835,280.30744 32.037009,279.92159 31.912985,279.65287 31.792407,279.3876 31.582256,279.25324 31.37555,279.11888 31.048266,279.11888 30.724427,279.11888 30.510831,279.25324 30.30068,279.3876 30.176657,279.65976 30.059524,279.9147 30.014738,280.32466 29.973396,280.73463 29.973396,281.22383 29.973396,281.76127 30.011292,282.123 30.049188,282.48474 30.173212,282.77068 30.2869,283.0394 30.493606,283.18065 30.703757,283.3219 31.048266,283.3219 31.372105,283.3219 31.585701,283.18754 31.799297,283.05318 31.91643,282.78102 Z"
         style="fill:#0055d4"
         id="path1052" />
      <path
         d="M 37.314895,281.21694 Q 37.314895,282.59843 36.880813,283.2461 36.450176,283.89034 35.540671,283.89034 34.617386,283.89034 34.190194,283.23577 33.766447,282.5812 33.766447,281.22383 33.766447,279.85613 34.197084,279.20501 34.627721,278.55044 35.540671,278.55044 36.463957,278.55044 36.887703,279.21534 37.314895,279.8768 37.314895,281.21694 Z M 36.408835,282.78102 Q 36.529413,282.50196 36.570755,282.12645 36.615541,281.74749 36.615541,281.21694 36.615541,280.69329 36.570755,280.30744 36.529413,279.92159 36.40539,279.65287 36.284812,279.3876 36.074661,279.25324 35.867955,279.11888 35.540671,279.11888 35.216832,279.11888 35.003236,279.25324 34.793085,279.3876 34.669062,279.65976 34.551929,279.9147 34.507142,280.32466 34.465801,280.73463 34.465801,281.22383 34.465801,281.76127 34.503697,282.123 34.541593,282.48474 34.665617,282.77068 34.779305,283.0394 34.986011,283.18065 35.196162,283.3219 35.540671,283.3219 35.86451,283.3219 36.078106,283.18754 36.291702,283.05318 36.408835,282.78102 Z"
         style="fill:#0055d4"
         id="path1054" />
      <path
         d="M 41.8073,281.21694 Q 41.8073,282.59843 41.373218,283.2461 40.942581,283.89034 40.033076,283.89034 39.10979,283.89034 38.682599,283.23577 38.258852,282.5812 38.258852,281.22383 38.258852,279.85613 38.689489,279.20501 39.120126,278.55044 40.033076,278.55044 40.956362,278.55044 41.380108,279.21534 41.8073,279.8768 41.8073,281.21694 Z M 40.90124,282.78102 Q 41.021818,282.50196 41.06316,282.12645 41.107946,281.74749 41.107946,281.21694 41.107946,280.69329 41.06316,280.30744 41.021818,279.92159 40.897795,279.65287 40.777217,279.3876 40.567066,279.25324 40.36036,279.11888 40.033076,279.11888 39.709237,279.11888 39.495641,279.25324 39.28549,279.3876 39.161467,279.65976 39.044334,279.9147 38.999547,280.32466 38.958206,280.73463 38.958206,281.22383 38.958206,281.76127 38.996102,282.123 39.033998,282.48474 39.158022,282.77068 39.27171,283.0394 39.478416,283.18065 39.688566,283.3219 40.033076,283.3219 40.356915,283.3219 40.570511,283.18754 40.784107,283.05318 40.90124,282.78102 Z"
         style="fill:#0055d4"
         id="path1056" />
      <path
         d="M 46.013762,283.78354 H 43.237015 V 283.25988 H 44.304995 V 279.82168 H 43.237015 V 279.35315 Q 43.454056,279.35315 43.702103,279.3187 43.95015,279.2808 44.077619,279.2119 44.236093,279.12577 44.325665,278.99486 44.418683,278.8605 44.432463,278.63657 H 44.966453 V 283.25988 H 46.013762 Z"
         style="fill:#0055d4"
         id="path1058" />
      <path
         d="M 49.448519,281.85084 H 47.298779 V 281.22728 H 49.448519 Z"
         style="font-style:normal;font-variant:normal;font-weight:normal;font-stretch:normal;font-size:7.05555534px;font-family:sans-serif;-inkscape-font-specification:'sans-serif, Normal';font-variant-ligatures:normal;font-variant-caps:normal;font-variant-numeric:normal;font-feature-settings:normal;text-align:start;writing-mode:lr-tb;text-anchor:start"
         id="path1060" />
      <path
         d="M 54.002937,281.21694 Q 54.002937,282.59843 53.568855,283.2461 53.138218,283.89034 52.228713,283.89034 51.305427,283.89034 50.878235,283.23577 50.454489,282.5812 50.454489,281.22383 50.454489,279.85613 50.885126,279.20501 51.315762,278.55044 52.228713,278.55044 53.151998,278.55044 53.575745,279.21534 54.002937,279.8768 54.002937,281.21694 Z M 53.096877,282.78102 Q 53.217455,282.50196 53.258796,282.12645 53.303583,281.74749 53.303583,281.21694 53.303583,280.69329 53.258796,280.30744 53.217455,279.92159 53.093432,279.65287 52.972853,279.3876 52.762703,279.25324 52.555997,279.11888 52.228713,279.11888 51.904874,279.11888 51.691278,279.25324 51.481127,279.3876 51.357104,279.65976 51.23997,279.9147 51.195184,280.32466 51.153843,280.73463 51.153843,281.22383 51.153843,281.76127 51.191739,282.123 51.229635,282.48474 51.353659,282.77068 51.467347,283.0394 51.674052,283.18065 51.884203,283.3219 52.228713,283.3219 52.552552,283.3219 52.766148,283.18754 52.979744,283.05318 53.096877,282.78102 Z"
         style="fill:#00ccff"
         id="path1062" />
      <path
         d="M 58.495342,281.21694 Q 58.495342,282.59843 58.06126,283.2461 57.630623,283.89034 56.721118,283.89034 55.797832,283.89034 55.37064,283.23577 54.946894,282.5812 54.946894,281.22383 54.946894,279.85613 55.37753,279.20501 55.808167,278.55044 56.721118,278.55044 57.644403,278.55044 58.06815,279.21534 58.495342,279.8768 58.495342,281.21694 Z M 57.589282,282.78102 Q 57.70986,282.50196 57.751201,282.12645 57.795987,281.74749 57.795987,281.21694 57.795987,280.69329 57.751201,280.30744 57.70986,279.92159 57.585837,279.65287 57.465258,279.3876 57.255107,279.25324 57.048402,279.11888 56.721118,279.11888 56.397279,279.11888 56.183683,279.25324 55.973532,279.3876 55.849509,279.65976 55.732375,279.9147 55.687589,280.32466 55.646248,280.73463 55.646248,281.22383 55.646248,281.76127 55.684144,282.123 55.72204,282.48474 55.846063,282.77068 55.959752,283.0394 56.166457,283.18065 56.376608,283.3219 56.721118,283.3219 57.044957,283.3219 57.258553,283.18754 57.472148,283.05318 57.589282,282.78102 Z"
         style="fill:#00ccff"
         id="path1064" />
      <path
         d="M 62.701804,283.78354 H 59.925057 V 283.25988 H 60.993037 V 279.82168 H 59.925057 V 279.35315 Q 60.142098,279.35315 60.390145,279.3187 60.638192,279.2808 60.76566,279.2119 60.924135,279.12577 61.013707,278.99486 61.106725,278.8605 61.120505,278.63657 H 61.654495 V 283.25988 H 62.701804 Z"
         style="fill:#00ccff"
         id="path1066" />
      <path
         d="M 66.136564,281.85084 H 63.986825 V 281.22728 H 66.136564 Z"
         style="font-style:normal;font-variant:normal;font-weight:normal;font-stretch:normal;font-size:7.05555534px;font-family:sans-serif;-inkscape-font-specification:'sans-serif, Normal';font-variant-ligatures:normal;font-variant-caps:normal;font-variant-numeric:normal;font-feature-settings:normal;text-align:start;writing-mode:lr-tb;text-anchor:start"
         id="path1068" />
      <path
         d="M 70.690979,281.21694 Q 70.690979,282.59843 70.256897,283.2461 69.82626,283.89034 68.916754,283.89034 67.993469,283.89034 67.566277,283.23577 67.14253,282.5812 67.14253,281.22383 67.14253,279.85613 67.573167,279.20501 68.003804,278.55044 68.916754,278.55044 69.84004,278.55044 70.263787,279.21534 70.690979,279.8768 70.690979,281.21694 Z M 69.784918,282.78102 Q 69.905497,282.50196 69.946838,282.12645 69.991624,281.74749 69.991624,281.21694 69.991624,280.69329 69.946838,280.30744 69.905497,279.92159 69.781473,279.65287 69.660895,279.3876 69.450744,279.25324 69.244039,279.11888 68.916754,279.11888 68.592915,279.11888 68.37932,279.25324 68.169169,279.3876 68.045145,279.65976 67.928012,279.9147 67.883226,280.32466 67.841885,280.73463 67.841885,281.22383 67.841885,281.76127 67.879781,282.123 67.917677,282.48474 68.0417,282.77068 68.155388,283.0394 68.362094,283.18065 68.572245,283.3219 68.916754,283.3219 69.240593,283.3219 69.454189,283.18754 69.667785,283.05318 69.784918,282.78102 Z"
         style="fill:#003380"
         id="path1070" />
      <path
         d="M 75.190274,283.78354 H 71.717618 V 283.06351 Q 72.079353,282.75346 72.441088,282.4434 72.806268,282.13334 73.119771,281.82672 73.78123,281.18594 74.025831,280.81042 74.270433,280.43146 74.270433,279.99393 74.270433,279.5943 74.005161,279.37037 73.743334,279.143 73.271356,279.143 72.957852,279.143 72.592672,279.25324 72.227492,279.36348 71.879537,279.59086 H 71.845086 V 278.86739 Q 72.089688,278.74681 72.496209,278.6469 72.906175,278.54699 73.288581,278.54699 74.077508,278.54699 74.52537,278.9294 74.973233,279.30836 74.973233,279.95948 74.973233,280.25232 74.897441,280.50725 74.825094,280.75875 74.6804,280.98612 74.546041,281.19972 74.363451,281.40642 74.184306,281.61313 73.925924,281.86462 73.557298,282.22636 73.164558,282.56742 72.771817,282.90504 72.430752,283.19443 H 75.190274 Z"
         style="fill:#003380"
         id="path1072" />
      <path
         d="M 79.389846,283.78354 H 76.613099 V 283.25988 H 77.681078 V 279.82168 H 76.613099 V 279.35315 Q 76.83014,279.35315 77.078187,279.3187 77.326233,279.2808 77.453702,279.2119 77.612176,279.12577 77.701749,278.99486 77.794766,278.8605 77.808547,278.63657 H 78.342537 V 283.25988 H 79.389846 Z"
         style="fill:#003380"
         id="path1074" />
      <path
         d="M 83.882247,283.78354 H 81.1055 V 283.25988 H 82.173479 V 279.82168 H 81.1055 V 279.35315 Q 81.322541,279.35315 81.570588,279.3187 81.818635,279.2808 81.946103,279.2119 82.104577,279.12577 82.19415,278.99486 82.287167,278.8605 82.300948,278.63657 H 82.834938 V 283.25988 H 83.882247 Z"
         style="fill:#003380"
         id="path1076" />
      <path
         d="M 88.667489,283.78354 H 85.194832 V 283.06351 Q 85.556567,282.75346 85.918302,282.4434 86.283483,282.13334 86.596986,281.82672 87.258444,281.18594 87.503046,280.81042 87.747648,280.43146 87.747648,279.99393 87.747648,279.5943 87.482376,279.37037 87.220548,279.143 86.74857,279.143 86.435067,279.143 86.069887,279.25324 85.704706,279.36348 85.356752,279.59086 H 85.322301 V 278.86739 Q 85.566903,278.74681 85.973424,278.6469 86.38339,278.54699 86.765796,278.54699 87.554723,278.54699 88.002585,278.9294 88.450447,279.30836 88.450447,279.95948 88.450447,280.25232 88.374655,280.50725 88.302308,280.75875 88.157614,280.98612 88.023256,281.19972 87.840666,281.40642 87.661521,281.61313 87.403139,281.86462 87.034513,282.22636 86.641772,282.56742 86.249032,282.90504 85.907967,283.19443 H 88.667489 Z"
         style="fill:#003380"
         id="path1078" />
      <path
         d="M 93.152999,281.21694 Q 93.152999,282.59843 92.718917,283.2461 92.28828,283.89034 91.378775,283.89034 90.45549,283.89034 90.028298,283.23577 89.604551,282.5812 89.604551,281.22383 89.604551,279.85613 90.035188,279.20501 90.465825,278.55044 91.378775,278.55044 92.302061,278.55044 92.725808,279.21534 93.152999,279.8768 93.152999,281.21694 Z M 92.246939,282.78102 Q 92.367518,282.50196 92.408859,282.12645 92.453645,281.74749 92.453645,281.21694 92.453645,280.69329 92.408859,280.30744 92.367518,279.92159 92.243494,279.65287 92.122916,279.3876 91.912765,279.25324 91.706059,279.11888 91.378775,279.11888 91.054936,279.11888 90.84134,279.25324 90.63119,279.3876 90.507166,279.65976 90.390033,279.9147 90.345247,280.32466 90.303906,280.73463 90.303906,281.22383 90.303906,281.76127 90.341802,282.123 90.379698,282.48474 90.503721,282.77068 90.617409,283.0394 90.824115,283.18065 91.034266,283.3219 91.378775,283.3219 91.702614,283.3219 91.91621,283.18754 92.129806,283.05318 92.246939,282.78102 Z"
         style="fill:#003380"
         id="path1080" />
      <path
         d="M 97.359465,283.78354 H 94.582718 V 283.25988 H 95.650698 V 279.82168 H 94.582718 V 279.35315 Q 94.799759,279.35315 95.047806,279.3187 95.295853,279.2808 95.423322,279.2119 95.581796,279.12577 95.671369,278.99486 95.764386,278.8605 95.778166,278.63657 H 96.312156 V 283.25988 H 97.359465 Z"
         style="fill:#003380"
         id="path1082" />
      <path
         d="M 102.1826,282.35382 Q 102.1826,283.01873 101.66239,283.4597 101.14562,283.90067 100.36014,283.90067 99.526427,283.90067 99.030333,283.47004 98.537685,283.0394 98.537685,282.3676 98.537685,281.94041 98.785732,281.5959 99.033778,281.24795 99.485086,281.04469 V 281.02402 Q 99.071674,280.80353 98.871859,280.5417 98.675488,280.27988 98.675488,279.88714 98.675488,279.30836 99.150912,278.92251 99.626335,278.53666 100.36014,278.53666 101.1284,278.53666 101.58659,278.90528 102.04479,279.27391 102.04479,279.84235 102.04479,280.1903 101.82775,280.52792 101.61071,280.8621 101.19041,281.05158 V 281.07225 Q 101.67272,281.27895 101.92766,281.58212 102.1826,281.88529 102.1826,282.35382 Z M 101.36611,279.84924 Q 101.36611,279.48061 101.08017,279.26357 100.79767,279.04309 100.3567,279.04309 99.922613,279.04309 99.64356,279.24979 99.367953,279.4565 99.367953,279.8079 99.367953,280.05595 99.505756,280.23854 99.647005,280.41768 99.929503,280.55893 100.05697,280.62094 100.29468,280.72085 100.53584,280.82076 100.76322,280.88621 101.10428,280.65884 101.23519,280.41424 101.36611,280.16963 101.36611,279.84924 Z M 101.47291,282.41928 Q 101.47291,282.10233 101.33166,281.91285 101.19385,281.71993 100.78733,281.527 100.62541,281.45121 100.43249,281.38575 100.23956,281.3203 99.919168,281.20316 99.609109,281.37197 99.419629,281.66136 99.233594,281.95075 99.233594,282.31593 99.233594,282.78102 99.553988,283.08418 99.874382,283.38735 100.36703,283.38735 100.87001,283.38735 101.16974,283.12897 101.47291,282.87059 101.47291,282.41928 Z"
         style="fill:#003380"
         id="path1084" />
      <path
         d="M 105.28663,281.85084 H 103.13689 V 281.22728 H 105.28663 Z"
         style="font-style:normal;font-variant:normal;font-weight:normal;font-stretch:normal;font-size:7.05555534px;font-family:sans-serif;-inkscape-font-specification:'sans-serif, Normal';font-variant-ligatures:normal;font-variant-caps:normal;font-variant-numeric:normal;font-feature-settings:normal;text-align:start;writing-mode:lr-tb;text-anchor:start"
         id="path1086" />
      <path
         d="M 109.84104,281.21694 Q 109.84104,282.59843 109.40696,283.2461 108.97632,283.89034 108.06682,283.89034 107.14353,283.89034 106.71634,283.23577 106.29259,282.5812 106.29259,281.22383 106.29259,279.85613 106.72323,279.20501 107.15387,278.55044 108.06682,278.55044 108.9901,278.55044 109.41385,279.21534 109.84104,279.8768 109.84104,281.21694 Z M 108.93498,282.78102 Q 109.05556,282.50196 109.0969,282.12645 109.14169,281.74749 109.14169,281.21694 109.14169,280.69329 109.0969,280.30744 109.05556,279.92159 108.93154,279.65287 108.81096,279.3876 108.60081,279.25324 108.3941,279.11888 108.06682,279.11888 107.74298,279.11888 107.52938,279.25324 107.31923,279.3876 107.19521,279.65976 107.07807,279.9147 107.03329,280.32466 106.99195,280.73463 106.99195,281.22383 106.99195,281.76127 107.02984,282.123 107.06774,282.48474 107.19176,282.77068 107.30545,283.0394 107.51216,283.18065 107.72231,283.3219 108.06682,283.3219 108.39066,283.3219 108.60425,283.18754 108.81785,283.05318 108.93498,282.78102 Z"
         style="fill:#00aad4"
         id="path1088" />
      <path
         d="M 114.33345,281.21694 Q 114.33345,282.59843 113.89937,283.2461 113.46873,283.89034 112.55923,283.89034 111.63594,283.89034 111.20875,283.23577 110.785,282.5812 110.785,281.22383 110.785,279.85613 111.21564,279.20501 111.64628,278.55044 112.55923,278.55044 113.48251,278.55044 113.90626,279.21534 114.33345,279.8768 114.33345,281.21694 Z M 113.42739,282.78102 Q 113.54797,282.50196 113.58931,282.12645 113.6341,281.74749 113.6341,281.21694 113.6341,280.69329 113.58931,280.30744 113.54797,279.92159 113.42394,279.65287 113.30337,279.3876 113.09322,279.25324 112.88651,279.11888 112.55923,279.11888 112.23539,279.11888 112.02179,279.25324 111.81164,279.3876 111.68762,279.65976 111.57048,279.9147 111.5257,280.32466 111.48436,280.73463 111.48436,281.22383 111.48436,281.76127 111.52225,282.123 111.56015,282.48474 111.68417,282.77068 111.79786,283.0394 112.00457,283.18065 112.21472,283.3219 112.55923,283.3219 112.88306,283.3219 113.09666,283.18754 113.31026,283.05318 113.42739,282.78102 Z"
         style="fill:#00aad4"
         id="path1090" />
      <path
         d="M 118.38143,281.31341 Q 118.5468,281.46154 118.6536,281.68548 118.76039,281.90941 118.76039,282.26425 118.76039,282.61565 118.63293,282.90848 118.50546,283.20132 118.27464,283.41836 118.01625,283.65952 117.66485,283.77665 117.3169,283.89034 116.90004,283.89034 116.47285,283.89034 116.05944,283.78698 115.64603,283.68708 115.38076,283.5665 V 282.84647 H 115.43243 Q 115.72527,283.0394 116.12145,283.16687 116.51764,283.29434 116.88626,283.29434 117.1033,283.29434 117.34791,283.22199 117.59251,283.14964 117.74409,283.00839 117.90257,282.85681 117.97836,282.67422 118.05759,282.49163 118.05759,282.21258 118.05759,281.93697 117.96802,281.75782 117.88189,281.57523 117.72687,281.47188 117.57184,281.36508 117.35135,281.32719 117.13086,281.28584 116.87593,281.28584 H 116.56587 V 280.71396 H 116.80703 Q 117.33068,280.71396 117.64074,280.49692 117.95424,280.27643 117.95424,279.85613 117.95424,279.67009 117.875,279.53229 117.79577,279.39104 117.65452,279.30147 117.50638,279.2119 117.33757,279.17745 117.16876,279.143 116.95516,279.143 116.62788,279.143 116.25925,279.26013 115.89063,279.37726 115.56335,279.59086 H 115.52889 V 278.87083 Q 115.7735,278.75025 116.18002,278.65035 116.58998,278.54699 116.97239,278.54699 117.34791,278.54699 117.63385,278.6159 117.91979,278.6848 118.15061,278.83638 118.39866,279.00175 118.52613,279.23601 118.6536,279.47028 118.6536,279.78378 118.6536,280.21097 118.35043,280.53137 118.0507,280.84832 117.64074,280.931 V 280.97923 Q 117.8061,281.00679 118.0197,281.09636 118.23329,281.18249 118.38143,281.31341 Z"
         style="fill:#00aad4"
         id="path1092" />
      <path
         d="M 121.97467,281.85084 H 119.82493 V 281.22728 H 121.97467 Z"
         style="font-style:normal;font-variant:normal;font-weight:normal;font-stretch:normal;font-size:7.05555534px;font-family:sans-serif;-inkscape-font-specification:'sans-serif, Normal';font-variant-ligatures:normal;font-variant-caps:normal;font-variant-numeric:normal;font-feature-settings:normal;text-align:start;writing-mode:lr-tb;text-anchor:start"
         id="path1094" />
      <path
         d="M 126.52908,281.21694 Q 126.52908,282.59843 126.095,283.2461 125.66436,283.89034 124.75486,283.89034 123.83157,283.89034 123.40438,283.23577 122.98063,282.5812 122.98063,281.22383 122.98063,279.85613 123.41127,279.20501 123.84191,278.55044 124.75486,278.55044 125.67814,278.55044 126.10189,279.21534 126.52908,279.8768 126.52908,281.21694 Z M 125.62302,282.78102 Q 125.7436,282.50196 125.78494,282.12645 125.82973,281.74749 125.82973,281.21694 125.82973,280.69329 125.78494,280.30744 125.7436,279.92159 125.61958,279.65287 125.499,279.3876 125.28885,279.25324 125.08214,279.11888 124.75486,279.11888 124.43102,279.11888 124.21742,279.25324 124.00727,279.3876 123.88325,279.65976 123.76612,279.9147 123.72133,280.32466 123.67999,280.73463 123.67999,281.22383 123.67999,281.76127 123.71788,282.123 123.75578,282.48474 123.8798,282.77068 123.99349,283.0394 124.2002,283.18065 124.41035,283.3219 124.75486,283.3219 125.0787,283.3219 125.29229,283.18754 125.50589,283.05318 125.62302,282.78102 Z"
         style="fill:#80b3ff"
         id="path1096" />
      <path
         d="M 130.73555,283.78354 H 127.9588 V 283.25988 H 129.02678 V 279.82168 H 127.9588 V 279.35315 Q 128.17584,279.35315 128.42389,279.3187 128.67194,279.2808 128.79941,279.2119 128.95788,279.12577 129.04745,278.99486 129.14047,278.8605 129.15425,278.63657 H 129.68824 V 283.25988 H 130.73555 Z"
         style="fill:#80b3ff"
         id="path1098" />
    </g>
    <g
       aria-label="Código del documento"
       style="font-style:normal;font-variant:normal;font-weight:normal;font-stretch:normal;font-size:4.23333311px;line-height:1.25;font-family:sans-serif;-inkscape-font-specification:sans-serif;letter-spacing:0px;word-spacing:0px;fill:#00ccff;fill-opacity:1;stroke:none;stroke-width:0.26458332"
       id="text823">
      <path
         d="M 34.349819,271.00817 Q 34.236131,271.05778 34.143113,271.10119 34.052163,271.1446 33.903335,271.19214 33.777244,271.23141 33.628416,271.25829 33.481655,271.28723 33.303888,271.28723 32.969025,271.28723 32.694106,271.19421 32.421255,271.09912 32.218683,270.89862 32.020246,270.70225 31.908625,270.40046 31.797003,270.0966 31.797003,269.69559 31.797003,269.31525 31.90449,269.01553 32.011977,268.71581 32.214549,268.5091 32.410919,268.3086 32.687905,268.20318 32.966958,268.09776 33.305955,268.09776 33.554002,268.09776 33.799982,268.1577 34.048029,268.21765 34.349819,268.36854 V 268.8543 H 34.318813 Q 34.064565,268.64139 33.814451,268.54424 33.564337,268.44709 33.279083,268.44709 33.045506,268.44709 32.857404,268.52357 32.671369,268.59798 32.524608,268.75715 32.381981,268.91218 32.301365,269.14989 32.222817,269.38553 32.222817,269.69559 32.222817,270.02012 32.309634,270.2537 32.398517,270.48727 32.53701,270.63404 32.681704,270.787 32.87394,270.86141 33.068244,270.93376 33.283218,270.93376 33.578807,270.93376 33.837189,270.83247 34.095571,270.73119 34.32088,270.52862 H 34.349819 Z"
         style="fill:#00ccff;fill-opacity:1;stroke-width:0.26458332"
         id="path1007" />
      <path
         d="M 36.869562,270.078 Q 36.869562,270.6423 36.580174,270.9689 36.290786,271.29549 35.805027,271.29549 35.315135,271.29549 35.025747,270.9689 34.738426,270.6423 34.738426,270.078 34.738426,269.51369 35.025747,269.1871 35.315135,268.85843 35.805027,268.85843 36.290786,268.85843 36.580174,269.1871 36.869562,269.51369 36.869562,270.078 Z M 36.468553,270.078 Q 36.468553,269.62945 36.292853,269.4124 36.117153,269.1933 35.805027,269.1933 35.488767,269.1933 35.313068,269.4124 35.139435,269.62945 35.139435,270.078 35.139435,270.51208 35.315135,270.73739 35.490835,270.96063 35.805027,270.96063 36.115086,270.96063 36.290786,270.73946 36.468553,270.51621 36.468553,270.078 Z M 36.447882,267.76703 35.883575,268.54011 H 35.575584 L 35.945587,267.76703 Z"
         style="fill:#00ccff;fill-opacity:1;stroke-width:0.26458332"
         id="path1009" />
      <path
         d="M 39.345896,271.23141 H 38.95729 V 270.98957 Q 38.789858,271.13426 38.607957,271.21488 38.426056,271.29549 38.213149,271.29549 37.799737,271.29549 37.555825,270.97717 37.313979,270.65884 37.313979,270.09453 37.313979,269.80101 37.396661,269.57157 37.481411,269.34212 37.624038,269.18089 37.764598,269.0238 37.950633,268.94112 38.138735,268.85843 38.339239,268.85843 38.52114,268.85843 38.6617,268.89771 38.80226,268.93491 38.95729,269.01553 V 268.01507 H 39.345896 Z M 38.95729,270.66297 V 269.33799 Q 38.800193,269.26771 38.67617,269.24084 38.552146,269.21397 38.405385,269.21397 38.07879,269.21397 37.896889,269.44134 37.714988,269.66872 37.714988,270.08627 37.714988,270.49761 37.855548,270.71258 37.996108,270.92549 38.306166,270.92549 38.471531,270.92549 38.64103,270.85314 38.810528,270.77873 38.95729,270.66297 Z"
         style="fill:#00ccff;fill-opacity:1;stroke-width:0.26458332"
         id="path1011" />
      <path
         d="M 40.528253,268.53597 H 40.090037 V 268.1329 H 40.528253 Z M 40.503448,271.23141 H 40.114842 V 268.92251 H 40.503448 Z"
         style="fill:#00ccff;fill-opacity:1;stroke-width:0.26458332"
         id="path1013" />
      <path
         d="M 43.149282,270.9689 Q 43.149282,271.55594 42.882631,271.83086 42.615981,272.10578 42.062009,272.10578 41.878041,272.10578 41.702341,272.07891 41.528709,272.0541 41.35921,272.00656 V 271.60969 H 41.379881 Q 41.474965,271.64689 41.681671,271.70064 41.888377,271.75645 42.095082,271.75645 42.29352,271.75645 42.423744,271.70891 42.553969,271.66136 42.626316,271.57661 42.698663,271.496 42.729669,271.38231 42.760675,271.26862 42.760675,271.12806 V 270.91722 Q 42.584975,271.05778 42.423744,271.12806 42.264581,271.19627 42.016534,271.19627 41.603123,271.19627 41.35921,270.89862 41.117364,270.5989 41.117364,270.05526 41.117364,269.7576 41.200047,269.54263 41.284796,269.32559 41.42949,269.16849 41.563849,269.02173 41.756085,268.94112 41.948321,268.85843 42.138491,268.85843 42.338995,268.85843 42.473354,268.89977 42.60978,268.93905 42.760675,269.02173 L 42.785479,268.92251 H 43.149282 Z M 42.760675,270.59683 V 269.33799 Q 42.605645,269.26771 42.471287,269.23877 42.338995,269.20777 42.206703,269.20777 41.88631,269.20777 41.702341,269.42274 41.518373,269.63771 41.518373,270.04699 41.518373,270.4356 41.654799,270.6361 41.791225,270.83661 42.107485,270.83661 42.276983,270.83661 42.446482,270.77253 42.618048,270.70638 42.760675,270.59683 Z"
         style="fill:#00ccff;fill-opacity:1;stroke-width:0.26458332"
         id="path1015" />
      <path
         d="M 45.881931,270.078 Q 45.881931,270.6423 45.592543,270.9689 45.303155,271.29549 44.817396,271.29549 44.327504,271.29549 44.038116,270.9689 43.750795,270.6423 43.750795,270.078 43.750795,269.51369 44.038116,269.1871 44.327504,268.85843 44.817396,268.85843 45.303155,268.85843 45.592543,269.1871 45.881931,269.51369 45.881931,270.078 Z M 45.480922,270.078 Q 45.480922,269.62945 45.305222,269.4124 45.129522,269.1933 44.817396,269.1933 44.501137,269.1933 44.325437,269.4124 44.151804,269.62945 44.151804,270.078 44.151804,270.51208 44.327504,270.73739 44.503204,270.96063 44.817396,270.96063 45.127455,270.96063 45.303155,270.73946 45.480922,270.51621 45.480922,270.078 Z"
         style="fill:#00ccff;fill-opacity:1;stroke-width:0.26458332"
         id="path1017" />
      <path
         d="M 49.846546,271.23141 H 49.457939 V 270.98957 Q 49.290508,271.13426 49.108607,271.21488 48.926706,271.29549 48.713799,271.29549 48.300387,271.29549 48.056475,270.97717 47.814629,270.65884 47.814629,270.09453 47.814629,269.80101 47.897311,269.57157 47.982061,269.34212 48.124688,269.18089 48.265247,269.0238 48.451283,268.94112 48.639385,268.85843 48.839889,268.85843 49.02179,268.85843 49.16235,268.89771 49.30291,268.93491 49.457939,269.01553 V 268.01507 H 49.846546 Z M 49.457939,270.66297 V 269.33799 Q 49.300843,269.26771 49.17682,269.24084 49.052796,269.21397 48.906035,269.21397 48.57944,269.21397 48.397539,269.44134 48.215638,269.66872 48.215638,270.08627 48.215638,270.49761 48.356198,270.71258 48.496758,270.92549 48.806816,270.92549 48.972181,270.92549 49.14168,270.85314 49.311178,270.77873 49.457939,270.66297 Z"
         style="fill:#00ccff;fill-opacity:1;stroke-width:0.26458332"
         id="path1019" />
      <path
         d="M 52.544056,270.11727 H 50.842868 Q 50.842868,270.33018 50.906947,270.48934 50.971026,270.64644 51.082647,270.74772 51.190134,270.84694 51.336895,270.89655 51.485723,270.94616 51.66349,270.94616 51.899135,270.94616 52.136846,270.85314 52.376625,270.75806 52.477911,270.66711 H 52.498581 V 271.09085 Q 52.302211,271.17354 52.097572,271.22935 51.892933,271.28516 51.667624,271.28516 51.092982,271.28516 50.770521,270.9751 50.44806,270.66297 50.44806,270.0904 50.44806,269.52403 50.756052,269.19123 51.066111,268.85843 51.570473,268.85843 52.037627,268.85843 52.289808,269.13128 52.544056,269.40414 52.544056,269.90643 Z M 52.165785,269.81961 Q 52.163718,269.51369 52.010756,269.34626 51.859861,269.17883 51.549802,269.17883 51.237676,269.17883 51.051641,269.3628 50.867673,269.54676 50.842868,269.81961 Z"
         style="fill:#00ccff;fill-opacity:1;stroke-width:0.26458332"
         id="path1021" />
      <path
         d="M 53.525909,271.23141 H 53.137303 V 268.01507 H 53.525909 Z"
         style="fill:#00ccff;fill-opacity:1;stroke-width:0.26458332"
         id="path1023" />
      <path
         d="M 57.660023,271.23141 H 57.271416 V 270.98957 Q 57.103984,271.13426 56.922083,271.21488 56.740182,271.29549 56.527275,271.29549 56.113864,271.29549 55.869951,270.97717 55.628106,270.65884 55.628106,270.09453 55.628106,269.80101 55.710788,269.57157 55.795537,269.34212 55.938164,269.18089 56.078724,269.0238 56.264759,268.94112 56.452861,268.85843 56.653366,268.85843 56.835267,268.85843 56.975827,268.89771 57.116387,268.93491 57.271416,269.01553 V 268.01507 H 57.660023 Z M 57.271416,270.66297 V 269.33799 Q 57.11432,269.26771 56.990296,269.24084 56.866273,269.21397 56.719512,269.21397 56.392917,269.21397 56.211016,269.44134 56.029115,269.66872 56.029115,270.08627 56.029115,270.49761 56.169675,270.71258 56.310234,270.92549 56.620293,270.92549 56.785658,270.92549 56.955156,270.85314 57.124655,270.77873 57.271416,270.66297 Z"
         style="fill:#00ccff;fill-opacity:1;stroke-width:0.26458332"
         id="path1025" />
      <path
         d="M 60.392673,270.078 Q 60.392673,270.6423 60.103285,270.9689 59.813897,271.29549 59.328139,271.29549 58.838246,271.29549 58.548858,270.9689 58.261537,270.6423 58.261537,270.078 58.261537,269.51369 58.548858,269.1871 58.838246,268.85843 59.328139,268.85843 59.813897,268.85843 60.103285,269.1871 60.392673,269.51369 60.392673,270.078 Z M 59.991664,270.078 Q 59.991664,269.62945 59.815964,269.4124 59.640264,269.1933 59.328139,269.1933 59.011879,269.1933 58.836179,269.4124 58.662546,269.62945 58.662546,270.078 58.662546,270.51208 58.838246,270.73739 59.013946,270.96063 59.328139,270.96063 59.638197,270.96063 59.813897,270.73946 59.991664,270.51621 59.991664,270.078 Z"
         style="fill:#00ccff;fill-opacity:1;stroke-width:0.26458332"
         id="path1027" />
      <path
         d="M 62.703643,271.08672 Q 62.509339,271.17974 62.333639,271.23141 62.160007,271.28309 61.963636,271.28309 61.713522,271.28309 61.504749,271.21074 61.295977,271.13633 61.147148,270.9875 60.996253,270.83867 60.913571,270.6113 60.830889,270.38392 60.830889,270.08006 60.830889,269.51369 61.140947,269.19123 61.453073,268.86877 61.963636,268.86877 62.162074,268.86877 62.352243,268.92458 62.544479,268.98039 62.703643,269.061 V 269.49302 H 62.682972 Q 62.505205,269.35453 62.315036,269.28011 62.126934,269.2057 61.9471,269.2057 61.61637,269.2057 61.424134,269.42894 61.233965,269.65012 61.233965,270.08006 61.233965,270.49761 61.42,270.72292 61.608102,270.94616 61.9471,270.94616 62.064922,270.94616 62.186878,270.91516 62.308835,270.88415 62.405986,270.83454 62.490736,270.79113 62.56515,270.74359 62.639564,270.69398 62.682972,270.65884 H 62.703643 Z"
         style="fill:#00ccff;fill-opacity:1;stroke-width:0.26458332"
         id="path1029" />
      <path
         d="M 65.117965,271.23141 H 64.729358 V 270.9751 Q 64.532988,271.13013 64.353154,271.21281 64.17332,271.29549 63.956279,271.29549 63.592477,271.29549 63.389905,271.07432 63.187334,270.85108 63.187334,270.42113 V 268.92251 H 63.57594 V 270.23716 Q 63.57594,270.41286 63.592477,270.53895 63.609013,270.66297 63.662757,270.75186 63.718567,270.84281 63.807451,270.88415 63.896334,270.92549 64.065833,270.92549 64.216728,270.92549 64.394495,270.84694 64.574329,270.76839 64.729358,270.64644 V 268.92251 H 65.117965 Z"
         style="fill:#00ccff;fill-opacity:1;stroke-width:0.26458332"
         id="path1031" />
      <path
         d="M 69.252079,271.23141 H 68.863472 V 269.91677 Q 68.863472,269.76794 68.849003,269.62945 68.8366,269.49095 68.793192,269.40827 68.74565,269.31939 68.656766,269.27391 68.567883,269.22844 68.400451,269.22844 68.237154,269.22844 68.073856,269.31112 67.910559,269.39173 67.747261,269.51782 67.753462,269.56537 67.757596,269.62945 67.761731,269.69146 67.761731,269.75347 V 271.23141 H 67.373124 V 269.91677 Q 67.373124,269.7638 67.358654,269.62738 67.346252,269.48889 67.302844,269.4062 67.255302,269.31732 67.166418,269.27391 67.077535,269.22844 66.910103,269.22844 66.75094,269.22844 66.589709,269.30698 66.430546,269.38553 66.271382,269.50749 V 271.23141 H 65.882776 V 268.92251 H 66.271382 V 269.17883 Q 66.453283,269.02793 66.633117,268.94318 66.815018,268.85843 67.019657,268.85843 67.255302,268.85843 67.418599,268.95765 67.583964,269.05687 67.664579,269.23257 67.900223,269.03413 68.094527,268.94732 68.28883,268.85843 68.510005,268.85843 68.890344,268.85843 69.070178,269.08994 69.252079,269.31939 69.252079,269.7328 Z"
         style="fill:#00ccff;fill-opacity:1;stroke-width:0.26458332"
         id="path1033" />
      <path
         d="M 71.933054,270.11727 H 70.231866 Q 70.231866,270.33018 70.295945,270.48934 70.360024,270.64644 70.471645,270.74772 70.579132,270.84694 70.725893,270.89655 70.874721,270.94616 71.052488,270.94616 71.288133,270.94616 71.525844,270.85314 71.765623,270.75806 71.866909,270.66711 H 71.887579 V 271.09085 Q 71.691209,271.17354 71.48657,271.22935 71.281931,271.28516 71.056622,271.28516 70.48198,271.28516 70.159519,270.9751 69.837059,270.66297 69.837059,270.0904 69.837059,269.52403 70.14505,269.19123 70.455109,268.85843 70.959471,268.85843 71.426625,268.85843 71.678806,269.13128 71.933054,269.40414 71.933054,269.90643 Z M 71.554783,269.81961 Q 71.552716,269.51369 71.399754,269.34626 71.248859,269.17883 70.9388,269.17883 70.626674,269.17883 70.440639,269.3628 70.256671,269.54676 70.231866,269.81961 Z"
         style="fill:#00ccff;fill-opacity:1;stroke-width:0.26458332"
         id="path1035" />
      <path
         d="M 74.452796,271.23141 H 74.064189 V 269.91677 Q 74.064189,269.7576 74.045586,269.61911 74.026982,269.47855 73.977373,269.4 73.925696,269.31319 73.828545,269.27184 73.731393,269.22844 73.576364,269.22844 73.4172,269.22844 73.243568,269.30698 73.069935,269.38553 72.910771,269.50749 V 271.23141 H 72.522165 V 268.92251 H 72.910771 V 269.17883 Q 73.092672,269.02793 73.286976,268.94318 73.481279,268.85843 73.685918,268.85843 74.060055,268.85843 74.256426,269.08374 74.452796,269.30905 74.452796,269.7328 Z"
         style="fill:#00ccff;fill-opacity:1;stroke-width:0.26458332"
         id="path1037" />
      <path
         d="M 76.399963,271.21074 Q 76.290409,271.23968 76.160185,271.25829 76.032027,271.27689 75.930741,271.27689 75.577275,271.27689 75.393306,271.08672 75.209338,270.89655 75.209338,270.47694 V 269.24911 H 74.946822 V 268.92251 H 75.209338 V 268.25899 H 75.597945 V 268.92251 H 76.399963 V 269.24911 H 75.597945 V 270.30124 Q 75.597945,270.48314 75.606213,270.58649 75.614482,270.68778 75.664091,270.77666 75.709566,270.85934 75.788114,270.89862 75.86873,270.93583 76.032027,270.93583 76.127112,270.93583 76.230465,270.90895 76.333817,270.88002 76.379293,270.86141 H 76.399963 Z"
         style="fill:#00ccff;fill-opacity:1;stroke-width:0.26458332"
         id="path1039" />
      <path
         d="M 78.83909,270.078 Q 78.83909,270.6423 78.549702,270.9689 78.260314,271.29549 77.774555,271.29549 77.284663,271.29549 76.995275,270.9689 76.707954,270.6423 76.707954,270.078 76.707954,269.51369 76.995275,269.1871 77.284663,268.85843 77.774555,268.85843 78.260314,268.85843 78.549702,269.1871 78.83909,269.51369 78.83909,270.078 Z M 78.438081,270.078 Q 78.438081,269.62945 78.262381,269.4124 78.086681,269.1933 77.774555,269.1933 77.458296,269.1933 77.282596,269.4124 77.108963,269.62945 77.108963,270.078 77.108963,270.51208 77.284663,270.73739 77.460363,270.96063 77.774555,270.96063 78.084614,270.96063 78.260314,270.73946 78.438081,270.51621 78.438081,270.078 Z"
         style="fill:#00ccff;fill-opacity:1;stroke-width:0.26458332"
         id="path1041" />
    </g>
    <g
       aria-label="Fecha del documento"
       style="font-style:normal;font-variant:normal;font-weight:normal;font-stretch:normal;font-size:4.23333311px;line-height:1.25;font-family:sans-serif;-inkscape-font-specification:'sans-serif, Normal';font-variant-ligatures:normal;font-variant-caps:normal;font-variant-numeric:normal;font-feature-settings:normal;text-align:start;letter-spacing:0px;word-spacing:0px;writing-mode:lr-tb;text-anchor:start;fill:#003380;fill-opacity:1;stroke:none;stroke-width:0.26458332"
       id="text823-3">
      <path
         d="M 63.366358,291.04432 H 61.809864 V 291.91248 H 63.14725 V 292.27628 H 61.809864 V 293.75836 H 61.400586 V 290.68051 H 63.366358 Z"
         style=""
         id="path972" />
      <path
         d="M 65.63392,292.64422 H 63.932731 Q 63.932731,292.85712 63.99681,293.01629 64.060889,293.17338 64.17251,293.27467 64.279997,293.37389 64.426758,293.4235 64.575586,293.47311 64.753353,293.47311 64.988998,293.47311 65.226709,293.38009 65.466488,293.28501 65.567774,293.19406 H 65.588444 V 293.6178 Q 65.392074,293.70048 65.187435,293.75629 64.982797,293.81211 64.757487,293.81211 64.182845,293.81211 63.860384,293.50205 63.537924,293.18992 63.537924,292.61735 63.537924,292.05097 63.845915,291.71818 64.155974,291.38538 64.660336,291.38538 65.127491,291.38538 65.379671,291.65823 65.63392,291.93108 65.63392,292.43338 Z M 65.255648,292.34656 Q 65.253581,292.04064 65.100619,291.87321 64.949724,291.70577 64.639665,291.70577 64.327539,291.70577 64.141504,291.88974 63.957536,292.07371 63.932731,292.34656 Z"
         style=""
         id="path974" />
      <path
         d="M 67.93042,293.61367 Q 67.736117,293.70669 67.560417,293.75836 67.386784,293.81004 67.190414,293.81004 66.9403,293.81004 66.731527,293.73769 66.522754,293.66328 66.373926,293.51445 66.223031,293.36562 66.140349,293.13824 66.057666,292.91087 66.057666,292.60701 66.057666,292.04064 66.367725,291.71818 66.679851,291.39572 67.190414,291.39572 67.388851,291.39572 67.57902,291.45153 67.771257,291.50734 67.93042,291.58795 V 292.01997 H 67.90975 Q 67.731983,291.88147 67.541813,291.80706 67.353711,291.73265 67.173877,291.73265 66.843148,291.73265 66.650912,291.95589 66.460742,292.17706 66.460742,292.60701 66.460742,293.02456 66.646778,293.24987 66.83488,293.47311 67.173877,293.47311 67.291699,293.47311 67.413656,293.4421 67.535612,293.4111 67.632764,293.36149 67.717513,293.31808 67.791927,293.27054 67.866341,293.22093 67.90975,293.18579 H 67.93042 Z"
         style=""
         id="path976" />
      <path
         d="M 70.36128,293.75836 H 69.972673 V 292.44371 Q 69.972673,292.28455 69.954069,292.14606 69.935466,292.0055 69.885856,291.92695 69.83418,291.84013 69.737028,291.79879 69.639877,291.75538 69.484847,291.75538 69.325684,291.75538 69.152051,291.83393 68.978418,291.91248 68.819255,292.03444 V 293.75836 H 68.430648 V 290.54202 H 68.819255 V 291.70577 Q 69.001156,291.55488 69.195459,291.47013 69.389763,291.38538 69.594401,291.38538 69.968539,291.38538 70.164909,291.61069 70.36128,291.836 70.36128,292.25975 Z"
         style=""
         id="path978" />
      <path
         d="M 72.903759,293.75836 H 72.51722 V 293.51238 Q 72.465543,293.54752 72.37666,293.6116 72.289843,293.67361 72.207161,293.71082 72.110009,293.75836 71.983919,293.78937 71.857828,293.82244 71.68833,293.82244 71.376204,293.82244 71.159163,293.61573 70.942122,293.40903 70.942122,293.08864 70.942122,292.82612 71.053743,292.66489 71.167431,292.50159 71.376204,292.40857 71.587044,292.31556 71.882633,292.28248 72.178222,292.24941 72.51722,292.23287 V 292.17293 Q 72.51722,292.04064 72.469677,291.95382 72.424202,291.867 72.337386,291.8174 72.254703,291.76985 72.138948,291.75332 72.023193,291.73678 71.897102,291.73678 71.74414,291.73678 71.556038,291.77812 71.367936,291.8174 71.167431,291.89388 H 71.146761 V 291.49907 Q 71.260449,291.46806 71.475423,291.43086 71.690397,291.39365 71.899169,291.39365 72.143082,291.39365 72.322916,291.43499 72.504817,291.47426 72.637109,291.57142 72.767333,291.6665 72.835546,291.8174 72.903759,291.96829 72.903759,292.19153 Z M 72.51722,293.18992 V 292.54707 Q 72.339453,292.5574 72.097607,292.57807 71.857828,292.59874 71.717268,292.63802 71.549837,292.68556 71.446484,292.78684 71.343131,292.88606 71.343131,293.06176 71.343131,293.2602 71.46302,293.36149 71.58291,293.46071 71.82889,293.46071 72.033528,293.46071 72.203027,293.38216 72.372526,293.30154 72.51722,293.18992 Z"
         style=""
         id="path980" />
      <path
         d="M 77.017203,293.75836 H 76.628597 V 293.51652 Q 76.461165,293.66121 76.279264,293.74183 76.097363,293.82244 75.884456,293.82244 75.471045,293.82244 75.227132,293.50411 74.985286,293.18579 74.985286,292.62148 74.985286,292.32796 75.067968,292.09851 75.152718,291.86907 75.295345,291.70784 75.435905,291.55074 75.62194,291.46806 75.810042,291.38538 76.010546,291.38538 76.192448,291.38538 76.333007,291.42465 76.473567,291.46186 76.628597,291.54248 V 290.54202 H 77.017203 Z M 76.628597,293.18992 V 291.86494 Q 76.4715,291.79466 76.347477,291.76779 76.223453,291.74091 76.076692,291.74091 75.750097,291.74091 75.568196,291.96829 75.386295,292.19567 75.386295,292.61321 75.386295,293.02456 75.526855,293.23953 75.667415,293.45244 75.977474,293.45244 76.142838,293.45244 76.312337,293.38009 76.481836,293.30568 76.628597,293.18992 Z"
         style=""
         id="path982" />
      <path
         d="M 79.714713,292.64422 H 78.013525 Q 78.013525,292.85712 78.077603,293.01629 78.141682,293.17338 78.253303,293.27467 78.36079,293.37389 78.507551,293.4235 78.656379,293.47311 78.834146,293.47311 79.069791,293.47311 79.307502,293.38009 79.547281,293.28501 79.648567,293.19406 H 79.669237 V 293.6178 Q 79.472867,293.70048 79.268228,293.75629 79.06359,293.81211 78.83828,293.81211 78.263639,293.81211 77.941178,293.50205 77.618717,293.18992 77.618717,292.61735 77.618717,292.05097 77.926708,291.71818 78.236767,291.38538 78.741129,291.38538 79.208284,291.38538 79.460465,291.65823 79.714713,291.93108 79.714713,292.43338 Z M 79.336441,292.34656 Q 79.334374,292.04064 79.181412,291.87321 79.030517,291.70577 78.720458,291.70577 78.408333,291.70577 78.222297,291.88974 78.038329,292.07371 78.013525,292.34656 Z"
         style=""
         id="path984" />
      <path
         d="M 80.696566,293.75836 H 80.307959 V 290.54202 H 80.696566 Z"
         style=""
         id="path986" />
      <path
         d="M 84.830679,293.75836 H 84.442072 V 293.51652 Q 84.274641,293.66121 84.09274,293.74183 83.910839,293.82244 83.697932,293.82244 83.28452,293.82244 83.040607,293.50411 82.798762,293.18579 82.798762,292.62148 82.798762,292.32796 82.881444,292.09851 82.966193,291.86907 83.10882,291.70784 83.24938,291.55074 83.435415,291.46806 83.623518,291.38538 83.824022,291.38538 84.005923,291.38538 84.146483,291.42465 84.287043,291.46186 84.442072,291.54248 V 290.54202 H 84.830679 Z M 84.442072,293.18992 V 291.86494 Q 84.284976,291.79466 84.160952,291.76779 84.036929,291.74091 83.890168,291.74091 83.563573,291.74091 83.381672,291.96829 83.199771,292.19567 83.199771,292.61321 83.199771,293.02456 83.340331,293.23953 83.480891,293.45244 83.790949,293.45244 83.956314,293.45244 84.125812,293.38009 84.295311,293.30568 84.442072,293.18992 Z"
         style=""
         id="path988" />
      <path
         d="M 87.563329,292.60494 Q 87.563329,293.16925 87.273941,293.49585 86.984553,293.82244 86.498795,293.82244 86.008902,293.82244 85.719514,293.49585 85.432193,293.16925 85.432193,292.60494 85.432193,292.04064 85.719514,291.71404 86.008902,291.38538 86.498795,291.38538 86.984553,291.38538 87.273941,291.71404 87.563329,292.04064 87.563329,292.60494 Z M 87.16232,292.60494 Q 87.16232,292.15639 86.98662,291.93935 86.81092,291.72024 86.498795,291.72024 86.182535,291.72024 86.006835,291.93935 85.833202,292.15639 85.833202,292.60494 85.833202,293.03903 86.008902,293.26434 86.184602,293.48758 86.498795,293.48758 86.808853,293.48758 86.984553,293.2664 87.16232,293.04316 87.16232,292.60494 Z"
         style=""
         id="path990" />
      <path
         d="M 89.874299,293.61367 Q 89.679995,293.70669 89.504296,293.75836 89.330663,293.81004 89.134292,293.81004 88.884178,293.81004 88.675406,293.73769 88.466633,293.66328 88.317805,293.51445 88.16691,293.36562 88.084227,293.13824 88.001545,292.91087 88.001545,292.60701 88.001545,292.04064 88.311604,291.71818 88.623729,291.39572 89.134292,291.39572 89.33273,291.39572 89.522899,291.45153 89.715135,291.50734 89.874299,291.58795 V 292.01997 H 89.853628 Q 89.675861,291.88147 89.485692,291.80706 89.29759,291.73265 89.117756,291.73265 88.787027,291.73265 88.59479,291.95589 88.404621,292.17706 88.404621,292.60701 88.404621,293.02456 88.590656,293.24987 88.778758,293.47311 89.117756,293.47311 89.235578,293.47311 89.357534,293.4421 89.479491,293.4111 89.576643,293.36149 89.661392,293.31808 89.735806,293.27054 89.81022,293.22093 89.853628,293.18579 H 89.874299 Z"
         style=""
         id="path992" />
      <path
         d="M 92.288621,293.75836 H 91.900015 V 293.50205 Q 91.703644,293.65708 91.52381,293.73976 91.343976,293.82244 91.126935,293.82244 90.763133,293.82244 90.560561,293.60127 90.35799,293.37802 90.35799,292.94808 V 291.44946 H 90.746597 V 292.76411 Q 90.746597,292.93981 90.763133,293.0659 90.77967,293.18992 90.833413,293.2788 90.889224,293.36976 90.978107,293.4111 91.06699,293.45244 91.236489,293.45244 91.387384,293.45244 91.565151,293.37389 91.744985,293.29534 91.900015,293.17338 V 291.44946 H 92.288621 Z"
         style=""
         id="path994" />
      <path
         d="M 96.422737,293.75836 H 96.03413 V 292.44371 Q 96.03413,292.29489 96.019661,292.15639 96.007258,292.0179 95.96385,291.93522 95.916308,291.84633 95.827424,291.80086 95.738541,291.75538 95.571109,291.75538 95.407812,291.75538 95.244514,291.83807 95.081217,291.91868 94.917919,292.04477 94.92412,292.09231 94.928255,292.15639 94.932389,292.2184 94.932389,292.28042 V 293.75836 H 94.543782 V 292.44371 Q 94.543782,292.29075 94.529313,292.15433 94.51691,292.01583 94.473502,291.93315 94.42596,291.84427 94.337076,291.80086 94.248193,291.75538 94.080761,291.75538 93.921598,291.75538 93.760367,291.83393 93.601204,291.91248 93.44204,292.03444 V 293.75836 H 93.053434 V 291.44946 H 93.44204 V 291.70577 Q 93.623941,291.55488 93.803775,291.47013 93.985677,291.38538 94.190315,291.38538 94.42596,291.38538 94.589257,291.4846 94.754622,291.58382 94.835237,291.75952 95.070882,291.56108 95.265185,291.47426 95.459488,291.38538 95.680663,291.38538 96.061002,291.38538 96.240836,291.61689 96.422737,291.84633 96.422737,292.25975 Z"
         style=""
         id="path996" />
      <path
         d="M 99.103709,292.64422 H 97.402521 Q 97.402521,292.85712 97.466599,293.01629 97.530678,293.17338 97.642299,293.27467 97.749786,293.37389 97.896547,293.4235 98.045376,293.47311 98.223142,293.47311 98.458787,293.47311 98.696499,293.38009 98.936277,293.28501 99.037563,293.19406 H 99.058234 V 293.6178 Q 98.861863,293.70048 98.657224,293.75629 98.452586,293.81211 98.227277,293.81211 97.652635,293.81211 97.330174,293.50205 97.007713,293.18992 97.007713,292.61735 97.007713,292.05097 97.315704,291.71818 97.625763,291.38538 98.130125,291.38538 98.59728,291.38538 98.849461,291.65823 99.103709,291.93108 99.103709,292.43338 Z M 98.725437,292.34656 Q 98.72337,292.04064 98.570408,291.87321 98.419513,291.70577 98.109454,291.70577 97.797329,291.70577 97.611293,291.88974 97.427325,292.07371 97.402521,292.34656 Z"
         style=""
         id="path998" />
      <path
         d="M 101.62345,293.75836 H 101.23485 V 292.44371 Q 101.23485,292.28455 101.21624,292.14606 101.19764,292.0055 101.14803,291.92695 101.09635,291.84013 100.9992,291.79879 100.90205,291.75538 100.74702,291.75538 100.58786,291.75538 100.41423,291.83393 100.24059,291.91248 100.08143,292.03444 V 293.75836 H 99.692823 V 291.44946 H 100.08143 V 291.70577 Q 100.26333,291.55488 100.45763,291.47013 100.65194,291.38538 100.85658,291.38538 101.23071,291.38538 101.42708,291.61069 101.62345,291.836 101.62345,292.25975 Z"
         style=""
         id="path1000" />
      <path
         d="M 103.57062,293.73769 Q 103.46107,293.76663 103.33084,293.78523 103.20269,293.80384 103.1014,293.80384 102.74793,293.80384 102.56396,293.61367 102.38,293.4235 102.38,293.00389 V 291.77605 H 102.11748 V 291.44946 H 102.38 V 290.78593 H 102.7686 V 291.44946 H 103.57062 V 291.77605 H 102.7686 V 292.82819 Q 102.7686,293.01009 102.77687,293.11344 102.78514,293.21473 102.83475,293.30361 102.88022,293.38629 102.95877,293.42557 103.03939,293.46277 103.20269,293.46277 103.29777,293.46277 103.40112,293.4359 103.50448,293.40696 103.54995,293.38836 H 103.57062 Z"
         style=""
         id="path1002" />
      <path
         d="M 106.00975,292.60494 Q 106.00975,293.16925 105.72036,293.49585 105.43097,293.82244 104.94521,293.82244 104.45532,293.82244 104.16593,293.49585 103.87861,293.16925 103.87861,292.60494 103.87861,292.04064 104.16593,291.71404 104.45532,291.38538 104.94521,291.38538 105.43097,291.38538 105.72036,291.71404 106.00975,292.04064 106.00975,292.60494 Z M 105.60874,292.60494 Q 105.60874,292.15639 105.43304,291.93935 105.25734,291.72024 104.94521,291.72024 104.62895,291.72024 104.45325,291.93935 104.27962,292.15639 104.27962,292.60494 104.27962,293.03903 104.45532,293.26434 104.63102,293.48758 104.94521,293.48758 105.25527,293.48758 105.43097,293.2664 105.60874,293.04316 105.60874,292.60494 Z"
         style=""
         id="path1004" />
    </g>
    <g
       aria-label="No. de Folios"
       style="font-style:normal;font-variant:normal;font-weight:normal;font-stretch:normal;font-size:4.23333311px;line-height:1.25;font-family:sans-serif;-inkscape-font-specification:'sans-serif, Normal';font-variant-ligatures:normal;font-variant-caps:normal;font-variant-numeric:normal;font-feature-settings:normal;text-align:start;letter-spacing:0px;word-spacing:0px;writing-mode:lr-tb;text-anchor:start;fill:#80b3ff;fill-opacity:1;stroke:none;stroke-width:0.26458332"
       id="text823-3-5">
      <path
         d="M 118.5107,293.75836 H 118.00427 L 116.54492,291.00504 V 293.75836 H 116.16252 V 290.68051 H 116.79711 L 118.12829,293.19406 V 290.68051 H 118.5107 Z"
         style=""
         id="path949" />
      <path
         d="M 121.26608,292.60494 Q 121.26608,293.16925 120.97669,293.49585 120.68731,293.82244 120.20155,293.82244 119.71166,293.82244 119.42227,293.49585 119.13495,293.16925 119.13495,292.60494 119.13495,292.04064 119.42227,291.71404 119.71166,291.38538 120.20155,291.38538 120.68731,291.38538 120.97669,291.71404 121.26608,292.04064 121.26608,292.60494 Z M 120.86507,292.60494 Q 120.86507,292.15639 120.68937,291.93935 120.51367,291.72024 120.20155,291.72024 119.88529,291.72024 119.70959,291.93935 119.53596,292.15639 119.53596,292.60494 119.53596,293.03903 119.71166,293.26434 119.88736,293.48758 120.20155,293.48758 120.51161,293.48758 120.68731,293.2664 120.86507,293.04316 120.86507,292.60494 Z"
         style=""
         id="path951" />
      <path
         d="M 122.46291,293.75836 H 121.96888 V 293.16925 H 122.46291 Z"
         style=""
         id="path953" />
      <path
         d="M 126.72725,293.75836 H 126.33864 V 293.51652 Q 126.17121,293.66121 125.98931,293.74183 125.80741,293.82244 125.5945,293.82244 125.18109,293.82244 124.93718,293.50411 124.69533,293.18579 124.69533,292.62148 124.69533,292.32796 124.77801,292.09851 124.86276,291.86907 125.00539,291.70784 125.14595,291.55074 125.33198,291.46806 125.52009,291.38538 125.72059,291.38538 125.90249,291.38538 126.04305,291.42465 126.18361,291.46186 126.33864,291.54248 V 290.54202 H 126.72725 Z M 126.33864,293.18992 V 291.86494 Q 126.18155,291.79466 126.05752,291.76779 125.9335,291.74091 125.78674,291.74091 125.46014,291.74091 125.27824,291.96829 125.09634,292.19567 125.09634,292.61321 125.09634,293.02456 125.2369,293.23953 125.37746,293.45244 125.68752,293.45244 125.85288,293.45244 126.02238,293.38009 126.19188,293.30568 126.33864,293.18992 Z"
         style=""
         id="path955" />
      <path
         d="M 129.42476,292.64422 H 127.72357 Q 127.72357,292.85712 127.78765,293.01629 127.85173,293.17338 127.96335,293.27467 128.07084,293.37389 128.2176,293.4235 128.36642,293.47311 128.54419,293.47311 128.77984,293.47311 129.01755,293.38009 129.25733,293.28501 129.35861,293.19406 H 129.37928 V 293.6178 Q 129.18291,293.70048 128.97827,293.75629 128.77363,293.81211 128.54833,293.81211 127.97368,293.81211 127.65122,293.50205 127.32876,293.18992 127.32876,292.61735 127.32876,292.05097 127.63675,291.71818 127.94681,291.38538 128.45117,291.38538 128.91833,291.38538 129.17051,291.65823 129.42476,291.93108 129.42476,292.43338 Z M 129.04649,292.34656 Q 129.04442,292.04064 128.89146,291.87321 128.74056,291.70577 128.4305,291.70577 128.11838,291.70577 127.93234,291.88974 127.74837,292.07371 127.72357,292.34656 Z"
         style=""
         id="path957" />
      <path
         d="M 133.49893,291.04432 H 131.94243 V 291.91248 H 133.27982 V 292.27628 H 131.94243 V 293.75836 H 131.53316 V 290.68051 H 133.49893 Z"
         style=""
         id="path959" />
      <path
         d="M 135.80163,292.60494 Q 135.80163,293.16925 135.51224,293.49585 135.22285,293.82244 134.7371,293.82244 134.2472,293.82244 133.95781,293.49585 133.67049,293.16925 133.67049,292.60494 133.67049,292.04064 133.95781,291.71404 134.2472,291.38538 134.7371,291.38538 135.22285,291.38538 135.51224,291.71404 135.80163,292.04064 135.80163,292.60494 Z M 135.40062,292.60494 Q 135.40062,292.15639 135.22492,291.93935 135.04922,291.72024 134.7371,291.72024 134.42084,291.72024 134.24514,291.93935 134.0715,292.15639 134.0715,292.60494 134.0715,293.03903 134.2472,293.26434 134.4229,293.48758 134.7371,293.48758 135.04715,293.48758 135.22285,293.2664 135.40062,293.04316 135.40062,292.60494 Z"
         style=""
         id="path961" />
      <path
         d="M 136.79795,293.75836 H 136.40934 V 290.54202 H 136.79795 Z"
         style=""
         id="path963" />
      <path
         d="M 137.98858,291.06292 H 137.55036 V 290.65984 H 137.98858 Z M 137.96377,293.75836 H 137.57517 V 291.44946 H 137.96377 Z"
         style=""
         id="path965" />
      <path
         d="M 140.70469,292.60494 Q 140.70469,293.16925 140.4153,293.49585 140.12591,293.82244 139.64015,293.82244 139.15026,293.82244 138.86087,293.49585 138.57355,293.16925 138.57355,292.60494 138.57355,292.04064 138.86087,291.71404 139.15026,291.38538 139.64015,291.38538 140.12591,291.38538 140.4153,291.71404 140.70469,292.04064 140.70469,292.60494 Z M 140.30368,292.60494 Q 140.30368,292.15639 140.12798,291.93935 139.95228,291.72024 139.64015,291.72024 139.32389,291.72024 139.14819,291.93935 138.97456,292.15639 138.97456,292.60494 138.97456,293.03903 139.15026,293.26434 139.32596,293.48758 139.64015,293.48758 139.95021,293.48758 140.12591,293.2664 140.30368,293.04316 140.30368,292.60494 Z"
         style=""
         id="path967" />
      <path
         d="M 142.95778,293.09277 Q 142.95778,293.40903 142.69526,293.6116 142.43482,293.81417 141.98213,293.81417 141.72581,293.81417 141.51084,293.75423 141.29793,293.69222 141.15324,293.61987 V 293.18372 H 141.17391 Q 141.35788,293.32221 141.58319,293.4049 141.8085,293.48551 142.0152,293.48551 142.27152,293.48551 142.41621,293.40283 142.56091,293.32015 142.56091,293.14238 142.56091,293.00595 142.48236,292.93567 142.40381,292.86539 142.18057,292.81578 142.09788,292.79718 141.96353,292.77238 141.83123,292.74757 141.72168,292.71863 141.41782,292.63802 141.28967,292.48299 141.16357,292.32589 141.16357,292.09851 141.16357,291.95589 141.22145,291.8298 141.2814,291.70371 141.40129,291.60449 141.51704,291.50734 141.69481,291.45153 141.87464,291.39365 142.09582,291.39365 142.30252,291.39365 142.51336,291.44532 142.72627,291.49493 142.86683,291.56728 V 291.98276 H 142.84616 Q 142.69733,291.87321 142.48442,291.79879 142.27152,291.72231 142.06688,291.72231 141.85397,291.72231 141.70721,291.80499 141.56045,291.88561 141.56045,292.04684 141.56045,292.18947 141.64933,292.26181 141.73615,292.33416 141.93045,292.37963 142.03794,292.40444 142.17023,292.42924 142.30459,292.45405 142.39347,292.47472 142.66426,292.53673 142.81102,292.68763 142.95778,292.84059 142.95778,293.09277 Z"
         style=""
         id="path969" />
    </g>
    <g
       aria-label="No. de documentos"
       style="font-style:normal;font-variant:normal;font-weight:normal;font-stretch:normal;font-size:4.23333311px;line-height:1.25;font-family:sans-serif;-inkscape-font-specification:'sans-serif, Normal';font-variant-ligatures:normal;font-variant-caps:normal;font-variant-numeric:normal;font-feature-settings:normal;text-align:start;letter-spacing:0px;word-spacing:0px;writing-mode:lr-tb;text-anchor:start;fill:#00aad4;fill-opacity:1;stroke:none;stroke-width:0.26458332"
       id="text823-3-5-9">
      <path
         d="M 93.207145,270.68781 H 92.700716 L 91.241374,267.93449 V 270.68781 H 90.858968 V 267.60996 H 91.493555 L 92.824739,270.1235 V 267.60996 H 93.207145 Z"
         style=""
         id="path917" />
      <path
         d="M 95.962532,269.53439 Q 95.962532,270.09869 95.673144,270.42529 95.383756,270.75188 94.897998,270.75188 94.408105,270.75188 94.118717,270.42529 93.831396,270.09869 93.831396,269.53439 93.831396,268.97008 94.118717,268.64349 94.408105,268.31482 94.897998,268.31482 95.383756,268.31482 95.673144,268.64349 95.962532,268.97008 95.962532,269.53439 Z M 95.561523,269.53439 Q 95.561523,269.08584 95.385823,268.86879 95.210123,268.64969 94.897998,268.64969 94.581738,268.64969 94.406038,268.86879 94.232405,269.08584 94.232405,269.53439 94.232405,269.96847 94.408105,270.19378 94.583805,270.41702 94.897998,270.41702 95.208056,270.41702 95.383756,270.19585 95.561523,269.9726 95.561523,269.53439 Z"
         style=""
         id="path919" />
      <path
         d="M 97.159359,270.68781 H 96.665332 V 270.09869 H 97.159359 Z"
         style=""
         id="path921" />
      <path
         d="M 101.4237,270.68781 H 101.03509 V 270.44596 Q 100.86766,270.59065 100.68576,270.67127 100.50386,270.75188 100.29095,270.75188 99.877539,270.75188 99.633626,270.43356 99.39178,270.11523 99.39178,269.55092 99.39178,269.2574 99.474463,269.02796 99.559212,268.79851 99.701839,268.63728 99.842399,268.48019 100.02843,268.39751 100.21654,268.31482 100.41704,268.31482 100.59894,268.31482 100.7395,268.3541 100.88006,268.3913 101.03509,268.47192 V 267.47146 H 101.4237 Z M 101.03509,270.11936 V 268.79438 Q 100.87799,268.7241 100.75397,268.69723 100.62995,268.67036 100.48319,268.67036 100.15659,268.67036 99.97469,268.89773 99.792789,269.12511 99.792789,269.54266 99.792789,269.954 99.933349,270.16897 100.07391,270.38188 100.38397,270.38188 100.54933,270.38188 100.71883,270.30953 100.88833,270.23512 101.03509,270.11936 Z"
         style=""
         id="path923" />
      <path
         d="M 104.12121,269.57366 H 102.42002 Q 102.42002,269.78657 102.4841,269.94573 102.54818,270.10283 102.6598,270.20411 102.76728,270.30333 102.91405,270.35294 103.06287,270.40255 103.24064,270.40255 103.47628,270.40255 103.714,270.30953 103.95378,270.21445 104.05506,270.1235 H 104.07573 V 270.54725 Q 103.87936,270.62993 103.67472,270.68574 103.47008,270.74155 103.24477,270.74155 102.67013,270.74155 102.34767,270.43149 102.02521,270.11936 102.02521,269.54679 102.02521,268.98042 102.3332,268.64762 102.64326,268.31482 103.14762,268.31482 103.61478,268.31482 103.86696,268.58768 104.12121,268.86053 104.12121,269.36282 Z M 103.74294,269.27601 Q 103.74087,268.97008 103.58791,268.80265 103.43701,268.63522 103.12695,268.63522 102.81483,268.63522 102.62879,268.81919 102.44482,269.00315 102.42002,269.27601 Z"
         style=""
         id="path925" />
      <path
         d="M 108.07135,270.68781 H 107.68275 V 270.44596 Q 107.51531,270.59065 107.33341,270.67127 107.15151,270.75188 106.93861,270.75188 106.52519,270.75188 106.28128,270.43356 106.03944,270.11523 106.03944,269.55092 106.03944,269.2574 106.12212,269.02796 106.20687,268.79851 106.34949,268.63728 106.49005,268.48019 106.67609,268.39751 106.86419,268.31482 107.0647,268.31482 107.2466,268.31482 107.38716,268.3541 107.52772,268.3913 107.68275,268.47192 V 267.47146 H 108.07135 Z M 107.68275,270.11936 V 268.79438 Q 107.52565,268.7241 107.40163,268.69723 107.2776,268.67036 107.13084,268.67036 106.80425,268.67036 106.62235,268.89773 106.44044,269.12511 106.44044,269.54266 106.44044,269.954 106.581,270.16897 106.72156,270.38188 107.03162,270.38188 107.19699,270.38188 107.36649,270.30953 107.53599,270.23512 107.68275,270.11936 Z"
         style=""
         id="path927" />
      <path
         d="M 110.804,269.53439 Q 110.804,270.09869 110.51461,270.42529 110.22523,270.75188 109.73947,270.75188 109.24958,270.75188 108.96019,270.42529 108.67287,270.09869 108.67287,269.53439 108.67287,268.97008 108.96019,268.64349 109.24958,268.31482 109.73947,268.31482 110.22523,268.31482 110.51461,268.64349 110.804,268.97008 110.804,269.53439 Z M 110.40299,269.53439 Q 110.40299,269.08584 110.22729,268.86879 110.05159,268.64969 109.73947,268.64969 109.42321,268.64969 109.24751,268.86879 109.07388,269.08584 109.07388,269.53439 109.07388,269.96847 109.24958,270.19378 109.42528,270.41702 109.73947,270.41702 110.04953,270.41702 110.22523,270.19585 110.40299,269.9726 110.40299,269.53439 Z"
         style=""
         id="path929" />
      <path
         d="M 113.11497,270.54311 Q 112.92067,270.63613 112.74497,270.68781 112.57134,270.73948 112.37497,270.73948 112.12485,270.73948 111.91608,270.66713 111.70731,270.59272 111.55848,270.44389 111.40758,270.29506 111.3249,270.06769 111.24222,269.84031 111.24222,269.53645 111.24222,268.97008 111.55228,268.64762 111.8644,268.32516 112.37497,268.32516 112.5734,268.32516 112.76357,268.38097 112.95581,268.43678 113.11497,268.5174 V 268.94941 H 113.0943 Q 112.91653,268.81092 112.72637,268.7365 112.53826,268.66209 112.35843,268.66209 112.0277,268.66209 111.83546,268.88533 111.64529,269.10651 111.64529,269.53645 111.64529,269.954 111.83133,270.17931 112.01943,270.40255 112.35843,270.40255 112.47625,270.40255 112.59821,270.37155 112.72016,270.34054 112.81732,270.29093 112.90206,270.24752 112.97648,270.19998 113.05089,270.15037 113.0943,270.11523 H 113.11497 Z"
         style=""
         id="path931" />
      <path
         d="M 115.5293,270.68781 H 115.14069 V 270.43149 Q 114.94432,270.58652 114.76449,270.6692 114.58465,270.75188 114.36761,270.75188 114.00381,270.75188 113.80124,270.53071 113.59866,270.30747 113.59866,269.87752 V 268.3789 H 113.98727 V 269.69355 Q 113.98727,269.86925 114.00381,269.99534 114.02034,270.11936 114.07409,270.20825 114.1299,270.2992 114.21878,270.34054 114.30767,270.38188 114.47716,270.38188 114.62806,270.38188 114.80583,270.30333 114.98566,270.22478 115.14069,270.10283 V 268.3789 H 115.5293 Z"
         style=""
         id="path933" />
      <path
         d="M 119.66341,270.68781 H 119.2748 V 269.37316 Q 119.2748,269.22433 119.26033,269.08584 119.24793,268.94734 119.20452,268.86466 119.15698,268.77578 119.0681,268.7303 118.97921,268.68483 118.81178,268.68483 118.64848,268.68483 118.48519,268.76751 118.32189,268.84812 118.15859,268.97421 118.16479,269.02176 118.16893,269.08584 118.17306,269.14785 118.17306,269.20986 V 270.68781 H 117.78446 V 269.37316 Q 117.78446,269.22019 117.76999,269.08377 117.75758,268.94528 117.71418,268.86259 117.66663,268.77371 117.57775,268.7303 117.48887,268.68483 117.32143,268.68483 117.16227,268.68483 117.00104,268.76337 116.84188,268.84192 116.68271,268.96388 V 270.68781 H 116.29411 V 268.3789 H 116.68271 V 268.63522 Q 116.86461,268.48432 117.04445,268.39957 117.22635,268.31482 117.43099,268.31482 117.66663,268.31482 117.82993,268.41404 117.99529,268.51326 118.07591,268.68896 118.31155,268.49052 118.50586,268.40371 118.70016,268.31482 118.92134,268.31482 119.30167,268.31482 119.48151,268.54633 119.66341,268.77578 119.66341,269.18919 Z"
         style=""
         id="path935" />
      <path
         d="M 122.34438,269.57366 H 120.6432 Q 120.6432,269.78657 120.70727,269.94573 120.77135,270.10283 120.88297,270.20411 120.99046,270.30333 121.13722,270.35294 121.28605,270.40255 121.46382,270.40255 121.69946,270.40255 121.93717,270.30953 122.17695,270.21445 122.27824,270.1235 H 122.29891 V 270.54725 Q 122.10254,270.62993 121.8979,270.68574 121.69326,270.74155 121.46795,270.74155 120.89331,270.74155 120.57085,270.43149 120.24839,270.11936 120.24839,269.54679 120.24839,268.98042 120.55638,268.64762 120.86644,268.31482 121.3708,268.31482 121.83795,268.31482 122.09014,268.58768 122.34438,268.86053 122.34438,269.36282 Z M 121.96611,269.27601 Q 121.96405,268.97008 121.81108,268.80265 121.66019,268.63522 121.35013,268.63522 121.038,268.63522 120.85197,268.81919 120.668,269.00315 120.6432,269.27601 Z"
         style=""
         id="path937" />
      <path
         d="M 124.86413,270.68781 H 124.47552 V 269.37316 Q 124.47552,269.21399 124.45692,269.0755 124.43831,268.93494 124.3887,268.85639 124.33703,268.76958 124.23988,268.72823 124.14272,268.68483 123.98769,268.68483 123.82853,268.68483 123.6549,268.76337 123.48127,268.84192 123.3221,268.96388 V 270.68781 H 122.9335 V 268.3789 H 123.3221 V 268.63522 Q 123.504,268.48432 123.69831,268.39957 123.89261,268.31482 124.09725,268.31482 124.47139,268.31482 124.66776,268.54013 124.86413,268.76544 124.86413,269.18919 Z"
         style=""
         id="path939" />
      <path
         d="M 126.81129,270.66713 Q 126.70174,270.69607 126.57152,270.71468 126.44336,270.73328 126.34207,270.73328 125.98861,270.73328 125.80464,270.54311 125.62067,270.35294 125.62067,269.93333 V 268.7055 H 125.35815 V 268.3789 H 125.62067 V 267.71538 H 126.00928 V 268.3789 H 126.81129 V 268.7055 H 126.00928 V 269.75763 Q 126.00928,269.93953 126.01754,270.04288 126.02581,270.14417 126.07542,270.23305 126.1209,270.31573 126.19945,270.35501 126.28006,270.39222 126.44336,270.39222 126.53844,270.39222 126.6418,270.36534 126.74515,270.33641 126.79062,270.3178 H 126.81129 Z"
         style=""
         id="path941" />
      <path
         d="M 129.25042,269.53439 Q 129.25042,270.09869 128.96103,270.42529 128.67165,270.75188 128.18589,270.75188 127.69599,270.75188 127.40661,270.42529 127.11929,270.09869 127.11929,269.53439 127.11929,268.97008 127.40661,268.64349 127.69599,268.31482 128.18589,268.31482 128.67165,268.31482 128.96103,268.64349 129.25042,268.97008 129.25042,269.53439 Z M 128.84941,269.53439 Q 128.84941,269.08584 128.67371,268.86879 128.49801,268.64969 128.18589,268.64969 127.86963,268.64969 127.69393,268.86879 127.52029,269.08584 127.52029,269.53439 127.52029,269.96847 127.69599,270.19378 127.87169,270.41702 128.18589,270.41702 128.49595,270.41702 128.67165,270.19585 128.84941,269.9726 128.84941,269.53439 Z"
         style=""
         id="path943" />
      <path
         d="M 131.50351,270.02221 Q 131.50351,270.33847 131.241,270.54104 130.98055,270.74362 130.52786,270.74362 130.27155,270.74362 130.05657,270.68367 129.84367,270.62166 129.69897,270.54931 V 270.11316 H 129.71964 Q 129.90361,270.25166 130.12892,270.33434 130.35423,270.41495 130.56093,270.41495 130.81725,270.41495 130.96194,270.33227 131.10664,270.24959 131.10664,270.07182 131.10664,269.9354 131.02809,269.86512 130.94954,269.79484 130.7263,269.74523 130.64362,269.72662 130.50926,269.70182 130.37697,269.67701 130.26741,269.64808 129.96356,269.56746 129.8354,269.41243 129.70931,269.25533 129.70931,269.02796 129.70931,268.88533 129.76718,268.75924 129.82713,268.63315 129.94702,268.53393 130.06277,268.43678 130.24054,268.38097 130.42038,268.32309 130.64155,268.32309 130.84826,268.32309 131.0591,268.37477 131.272,268.42438 131.41256,268.49672 V 268.9122 H 131.39189 Q 131.24306,268.80265 131.03016,268.72823 130.81725,268.65175 130.61261,268.65175 130.3997,268.65175 130.25294,268.73444 130.10618,268.81505 130.10618,268.97628 130.10618,269.11891 130.19507,269.19126 130.28188,269.2636 130.47619,269.30908 130.58367,269.33388 130.71596,269.35869 130.85032,269.38349 130.93921,269.40416 131.20999,269.46617 131.35675,269.61707 131.50351,269.77003 131.50351,270.02221 Z"
         style=""
         id="path946" />
    </g>
    <g
       aria-label="Identificador Único"
       style="font-style:normal;font-variant:normal;font-weight:normal;font-stretch:normal;font-size:4.23333311px;line-height:1.25;font-family:sans-serif;-inkscape-font-specification:'sans-serif, Normal';font-variant-ligatures:normal;font-variant-caps:normal;font-variant-numeric:normal;font-feature-settings:normal;text-align:start;letter-spacing:0px;word-spacing:0px;writing-mode:lr-tb;text-anchor:start;fill:#0055d4;fill-opacity:1;stroke:none;stroke-width:0.26458332"
       id="text823-1">
      <path
         d="M 7.1609952,294.26788 H 5.9455656 V 293.95369 H 6.3486418 V 291.50423 H 5.9455656 V 291.19004 H 7.1609952 V 291.50423 H 6.7579191 V 293.95369 H 7.1609952 Z"
         style=""
         id="path880" />
      <path
         d="M 9.7034756,294.26788 H 9.3148689 V 294.02604 Q 9.1474372,294.17073 8.9655362,294.25135 8.7836352,294.33196 8.5707283,294.33196 8.1573168,294.33196 7.9134041,294.01364 7.6715584,293.69531 7.6715584,293.131 7.6715584,292.83748 7.7542407,292.60804 7.83899,292.37859 7.981617,292.21736 8.1221769,292.06027 8.308212,291.97758 8.4963142,291.8949 8.6968188,291.8949 8.8787198,291.8949 9.0192797,291.93418 9.1598396,291.97138 9.3148689,292.052 V 291.05154 H 9.7034756 Z M 9.3148689,293.69944 V 292.37446 Q 9.1577725,292.30418 9.0337491,292.27731 8.9097256,292.25044 8.7629646,292.25044 8.4363695,292.25044 8.2544685,292.47781 8.0725675,292.70519 8.0725675,293.12273 8.0725675,293.53408 8.2131274,293.74905 8.3536873,293.96196 8.6637458,293.96196 8.8291104,293.96196 8.9986091,293.88961 9.1681078,293.8152 9.3148689,293.69944 Z"
         style=""
         id="path882" />
      <path
         d="M 12.400985,293.15374 H 10.699797 Q 10.699797,293.36665 10.763876,293.52581 10.827955,293.68291 10.939576,293.78419 11.047063,293.88341 11.193824,293.93302 11.342652,293.98263 11.520419,293.98263 11.756063,293.98263 11.993775,293.88961 12.233554,293.79453 12.334839,293.70358 H 12.35551 V 294.12732 Q 12.15914,294.21001 11.954501,294.26582 11.749862,294.32163 11.524553,294.32163 10.949911,294.32163 10.62745,294.01157 10.304989,293.69944 10.304989,293.12687 10.304989,292.56049 10.612981,292.2277 10.923039,291.8949 11.427401,291.8949 11.894556,291.8949 12.146737,292.16775 12.400985,292.4406 12.400985,292.9429 Z M 12.022714,292.85608 Q 12.020647,292.55016 11.867685,292.38273 11.716789,292.2153 11.406731,292.2153 11.094605,292.2153 10.90857,292.39926 10.724602,292.58323 10.699797,292.85608 Z"
         style=""
         id="path884" />
      <path
         d="M 14.920728,294.26788 H 14.532121 V 292.95323 Q 14.532121,292.79407 14.513518,292.65558 14.494914,292.51502 14.445305,292.43647 14.393628,292.34965 14.296477,292.30831 14.199325,292.2649 14.044296,292.2649 13.885132,292.2649 13.711499,292.34345 13.537867,292.422 13.378703,292.54396 V 294.26788 H 12.990096 V 291.95898 H 13.378703 V 292.2153 Q 13.560604,292.0644 13.754908,291.97965 13.949211,291.8949 14.15385,291.8949 14.527987,291.8949 14.724357,292.12021 14.920728,292.34552 14.920728,292.76927 Z"
         style=""
         id="path886" />
      <path
         d="M 16.867896,294.24721 Q 16.758341,294.27615 16.628117,294.29476 16.499959,294.31336 16.398674,294.31336 16.045207,294.31336 15.861239,294.12319 15.677271,293.93302 15.677271,293.51341 V 292.28558 H 15.414754 V 291.95898 H 15.677271 V 291.29546 H 16.065877 V 291.95898 H 16.867896 V 292.28558 H 16.065877 V 293.33771 Q 16.065877,293.51961 16.074146,293.62296 16.082414,293.72425 16.132023,293.81313 16.177498,293.89581 16.256047,293.93509 16.336662,293.97229 16.499959,293.97229 16.595044,293.97229 16.698397,293.94542 16.80175,293.91648 16.847225,293.89788 H 16.867896 Z"
         style=""
         id="path888" />
      <path
         d="M 17.75673,291.57244 H 17.318514 V 291.16936 H 17.75673 Z M 17.731925,294.26788 H 17.343319 V 291.95898 H 17.731925 Z"
         style=""
         id="path890" />
      <path
         d="M 19.747306,291.42775 H 19.726635 Q 19.662557,291.40914 19.559204,291.39054 19.455851,291.36987 19.377303,291.36987 19.127189,291.36987 19.013501,291.48149 18.90188,291.59104 18.90188,291.88043 V 291.95898 H 19.602612 V 292.28558 H 18.914282 V 294.26788 H 18.525675 V 292.28558 H 18.263159 V 291.95898 H 18.525675 V 291.8825 Q 18.525675,291.47115 18.730314,291.25205 18.934953,291.03087 19.321492,291.03087 19.451717,291.03087 19.55507,291.04327 19.66049,291.05568 19.747306,291.07221 Z"
         style=""
         id="path892" />
      <path
         d="M 20.410832,291.57244 H 19.972615 V 291.16936 H 20.410832 Z M 20.386027,294.26788 H 19.99742 V 291.95898 H 20.386027 Z"
         style=""
         id="path894" />
      <path
         d="M 22.866496,294.12319 Q 22.672193,294.21621 22.496493,294.26788 22.32286,294.31956 22.12649,294.31956 21.876376,294.31956 21.667603,294.24721 21.45883,294.1728 21.310002,294.02397 21.159107,293.87514 21.076425,293.64777 20.993742,293.42039 20.993742,293.11653 20.993742,292.55016 21.303801,292.2277 21.615927,291.90524 22.12649,291.90524 22.324927,291.90524 22.515097,291.96105 22.707333,292.01686 22.866496,292.09747 V 292.52949 H 22.845826 Q 22.668059,292.391 22.47789,292.31658 22.289787,292.24217 22.109953,292.24217 21.779224,292.24217 21.586988,292.46541 21.396819,292.68658 21.396819,293.11653 21.396819,293.53408 21.582854,293.75939 21.770956,293.98263 22.109953,293.98263 22.227776,293.98263 22.349732,293.95162 22.471688,293.92062 22.56884,293.87101 22.653589,293.8276 22.728003,293.78006 22.802417,293.73045 22.845826,293.69531 H 22.866496 Z"
         style=""
         id="path896" />
      <path
         d="M 25.160929,294.26788 H 24.77439 V 294.0219 Q 24.722713,294.05704 24.63383,294.12112 24.547013,294.18313 24.464331,294.22034 24.36718,294.26788 24.241089,294.29889 24.114999,294.33196 23.9455,294.33196 23.633374,294.33196 23.416333,294.12526 23.199292,293.91855 23.199292,293.59816 23.199292,293.33564 23.310913,293.17441 23.424601,293.01111 23.633374,292.91809 23.844214,292.82508 24.139803,292.792 24.435392,292.75893 24.77439,292.7424 V 292.68245 Q 24.77439,292.55016 24.726847,292.46334 24.681372,292.37653 24.594556,292.32692 24.511874,292.27937 24.396118,292.26284 24.280363,292.2463 24.154273,292.2463 24.00131,292.2463 23.813208,292.28764 23.625106,292.32692 23.424601,292.4034 H 23.403931 V 292.00859 Q 23.517619,291.97758 23.732593,291.94038 23.947567,291.90317 24.15634,291.90317 24.400252,291.90317 24.580086,291.94451 24.761987,291.98379 24.894279,292.08094 25.024504,292.17602 25.092717,292.32692 25.160929,292.47781 25.160929,292.70105 Z M 24.77439,293.69944 V 293.05659 Q 24.596623,293.06692 24.354777,293.08759 24.114999,293.10826 23.974439,293.14754 23.807007,293.19508 23.703654,293.29637 23.600301,293.39559 23.600301,293.57129 23.600301,293.76972 23.720191,293.87101 23.84008,293.97023 24.08606,293.97023 24.290698,293.97023 24.460197,293.89168 24.629696,293.81106 24.77439,293.69944 Z"
         style=""
         id="path898" />
      <path
         d="M 27.786091,294.26788 H 27.397485 V 294.02604 Q 27.230053,294.17073 27.048152,294.25135 26.866251,294.33196 26.653344,294.33196 26.239933,294.33196 25.99602,294.01364 25.754174,293.69531 25.754174,293.131 25.754174,292.83748 25.836856,292.60804 25.921606,292.37859 26.064233,292.21736 26.204793,292.06027 26.390828,291.97758 26.57893,291.8949 26.779434,291.8949 26.961336,291.8949 27.101895,291.93418 27.242455,291.97138 27.397485,292.052 V 291.05154 H 27.786091 Z M 27.397485,293.69944 V 292.37446 Q 27.240388,292.30418 27.116365,292.27731 26.992341,292.25044 26.84558,292.25044 26.518985,292.25044 26.337084,292.47781 26.155183,292.70519 26.155183,293.12273 26.155183,293.53408 26.295743,293.74905 26.436303,293.96196 26.746362,293.96196 26.911726,293.96196 27.081225,293.88961 27.250724,293.8152 27.397485,293.69944 Z"
         style=""
         id="path900" />
      <path
         d="M 30.518742,293.11447 Q 30.518742,293.67877 30.229354,294.00537 29.939966,294.33196 29.454207,294.33196 28.964315,294.33196 28.674927,294.00537 28.387606,293.67877 28.387606,293.11447 28.387606,292.55016 28.674927,292.22356 28.964315,291.8949 29.454207,291.8949 29.939966,291.8949 30.229354,292.22356 30.518742,292.55016 30.518742,293.11447 Z M 30.117732,293.11447 Q 30.117732,292.66591 29.942033,292.44887 29.766333,292.22976 29.454207,292.22976 29.137947,292.22976 28.962248,292.44887 28.788615,292.66591 28.788615,293.11447 28.788615,293.54855 28.964315,293.77386 29.140014,293.9971 29.454207,293.9971 29.764266,293.9971 29.939966,293.77592 30.117732,293.55268 30.117732,293.11447 Z"
         style=""
         id="path902" />
      <path
         d="M 32.563061,292.38273 H 32.54239 Q 32.455574,292.36206 32.372891,292.35379 32.292276,292.34345 32.180655,292.34345 32.000821,292.34345 31.83339,292.42407 31.665958,292.50262 31.510929,292.62871 V 294.26788 H 31.122322 V 291.95898 H 31.510929 V 292.30004 Q 31.742439,292.11401 31.918139,292.03753 32.095906,291.95898 32.279874,291.95898 32.38116,291.95898 32.426635,291.96518 32.47211,291.96932 32.563061,291.98379 Z"
         style=""
         id="path904" />
      <path
         d="M 36.769522,293.03178 Q 36.769522,293.36665 36.695107,293.61676 36.62276,293.86481 36.455329,294.03017 36.296165,294.18727 36.083259,294.25962 35.870352,294.33196 35.587165,294.33196 35.297777,294.33196 35.082803,294.25548 34.867829,294.179 34.721068,294.03017 34.553636,293.86067 34.479222,293.62089 34.406875,293.38112 34.406875,293.03178 V 291.19004 H 34.816152 V 293.05245 Q 34.816152,293.30257 34.849225,293.44726 34.884365,293.59196 34.964981,293.70978 35.055931,293.84414 35.21096,293.91235 35.368057,293.98056 35.587165,293.98056 35.80834,293.98056 35.963369,293.91442 36.118399,293.8462 36.211416,293.70978 36.292031,293.59196 36.325104,293.44106 36.360244,293.2881 36.360244,293.06279 V 291.19004 H 36.769522 Z M 36.256891,290.03248 35.692585,290.80556 H 35.384593 L 35.754596,290.03248 Z"
         style=""
         id="path906" />
      <path
         d="M 39.452562,294.26788 H 39.063955 V 292.95323 Q 39.063955,292.79407 39.045352,292.65558 39.026748,292.51502 38.977139,292.43647 38.925462,292.34965 38.828311,292.30831 38.731159,292.2649 38.57613,292.2649 38.416966,292.2649 38.243333,292.34345 38.069701,292.422 37.910537,292.54396 V 294.26788 H 37.521931 V 291.95898 H 37.910537 V 292.2153 Q 38.092438,292.0644 38.286742,291.97965 38.481045,291.8949 38.685684,291.8949 39.059821,291.8949 39.256191,292.12021 39.452562,292.34552 39.452562,292.76927 Z"
         style=""
         id="path908" />
      <path
         d="M 40.618382,291.57244 H 40.180165 V 291.16936 H 40.618382 Z M 40.593577,294.26788 H 40.20497 V 291.95898 H 40.593577 Z"
         style=""
         id="path910" />
      <path
         d="M 43.074046,294.12319 Q 42.879743,294.21621 42.704043,294.26788 42.53041,294.31956 42.33404,294.31956 42.083926,294.31956 41.875153,294.24721 41.66638,294.1728 41.517552,294.02397 41.366657,293.87514 41.283975,293.64777 41.201293,293.42039 41.201293,293.11653 41.201293,292.55016 41.511351,292.2277 41.823477,291.90524 42.33404,291.90524 42.532477,291.90524 42.722647,291.96105 42.914883,292.01686 43.074046,292.09747 V 292.52949 H 43.053376 Q 42.875609,292.391 42.68544,292.31658 42.497337,292.24217 42.317503,292.24217 41.986774,292.24217 41.794538,292.46541 41.604369,292.68658 41.604369,293.11653 41.604369,293.53408 41.790404,293.75939 41.978506,293.98263 42.317503,293.98263 42.435326,293.98263 42.557282,293.95162 42.679238,293.92062 42.77639,293.87101 42.861139,293.8276 42.935553,293.78006 43.009968,293.73045 43.053376,293.69531 H 43.074046 Z"
         style=""
         id="path912" />
      <path
         d="M 45.542114,293.11447 Q 45.542114,293.67877 45.252726,294.00537 44.963338,294.33196 44.47758,294.33196 43.987687,294.33196 43.698299,294.00537 43.410978,293.67877 43.410978,293.11447 43.410978,292.55016 43.698299,292.22356 43.987687,291.8949 44.47758,291.8949 44.963338,291.8949 45.252726,292.22356 45.542114,292.55016 45.542114,293.11447 Z M 45.141105,293.11447 Q 45.141105,292.66591 44.965405,292.44887 44.789705,292.22976 44.47758,292.22976 44.16132,292.22976 43.98562,292.44887 43.811987,292.66591 43.811987,293.11447 43.811987,293.54855 43.987687,293.77386 44.163387,293.9971 44.47758,293.9971 44.787638,293.9971 44.963338,293.77592 45.141105,293.55268 45.141105,293.11447 Z"
         style=""
         id="path914" />
    </g>
    <path
       style="fill:#0055d4;fill-opacity:1;stroke:#0055d4;stroke-width:0.26499999;stroke-linecap:butt;stroke-linejoin:miter;stroke-miterlimit:4;stroke-dasharray:none;stroke-opacity:1;marker-end:url(#Arrow2Lend)"
       d="M 25.236617,284.66641 V 290.43054"
       id="path945"
       inkscape:connector-curvature="0" />
    <path
       style="fill:#003380;fill-opacity:1;stroke:#003380;stroke-width:0.26499999;stroke-linecap:butt;stroke-linejoin:miter;stroke-miterlimit:4;stroke-dasharray:none;stroke-opacity:1;marker-end:url(#Arrow2Lend-1)"
       d="M 85.543068,284.27473 V 290.03886"
       id="path945-0"
       inkscape:connector-curvature="0" />
    <path
       style="fill:#80b3ff;fill-opacity:1;stroke:#80b3ff;stroke-width:0.26499999;stroke-linecap:butt;stroke-linejoin:miter;stroke-miterlimit:4;stroke-dasharray:none;stroke-opacity:1;marker-end:url(#Arrow2Lend-2)"
       d="M 127.10348,284.14109 V 289.90522"
       id="path945-09"
       inkscape:connector-curvature="0" />
    <path
       style="fill:#00aad4;fill-opacity:1;stroke:#00aad4;stroke-width:0.26499999;stroke-linecap:butt;stroke-linejoin:miter;stroke-miterlimit:4;stroke-dasharray:none;stroke-opacity:1;marker-end:url(#Arrow2Lend-2-7)"
       d="M 112.53728,277.61084 V 271.84669"
       id="path945-09-6"
       inkscape:connector-curvature="0" />
    <path
       style="fill:#00ccff;fill-opacity:1;stroke:#00ccff;stroke-width:0.26499999;stroke-linecap:butt;stroke-linejoin:miter;stroke-miterlimit:4;stroke-dasharray:none;stroke-opacity:1;marker-end:url(#Arrow2Lend-2-7-6)"
       d="M 55.951849,278.22609 V 272.46194"
       id="path945-09-6-7"
       inkscape:connector-curvature="0" />
  </g>
</svg>
